<?xml version="1.0" encoding="utf-8"?>
<!-- Generator: Adobe Illustrator 16.0.0, SVG Export Plug-In . SVG Version: 6.00 Build 0)  -->
<!DOCTYPE svg PUBLIC "-//W3C//DTD SVG 1.1//EN" "http://www.w3.org/Graphics/SVG/1.1/DTD/svg11.dtd">
<svg version="1.1" id="Layer_1" xmlns="http://www.w3.org/2000/svg" xmlns:xlink="http://www.w3.org/1999/xlink" x="0px" y="0px"
	 width="800px" height="1985px" viewBox="0 0 800 1985" enable-background="new 0 0 800 1985" xml:space="preserve">
<path id="cloudBackR_1_" opacity="0.3" fill="#FFFFFF" d="M522.645,411.296l154.178,0.256c0,0,67.658-10.123,67.396-71.322
	c-0.264-61.2-65.262-71.17-65.262-71.17l-156.312,1.234c0,0-64.09,4.063-64.09,69.936
	C458.555,406.103,522.645,411.296,522.645,411.296z"/>
<path id="cloudBackL_1_" opacity="0.3" fill="#FFFFFF" d="M184.702,458.962l179.77,0.301c0,0,78.888-11.812,78.583-83.225
	c-0.305-71.412-76.095-83.046-76.095-83.046l-182.258,1.441c0,0-74.729,4.742-74.729,81.604
	C109.972,452.903,184.702,458.962,184.702,458.962z"/>
<path id="cloudR_1_" opacity="0.8" fill="#FFFFFF" d="M450.799,241.33h190.77c0,0,23.344,0.772,23.344,30.187
	c0,29.415-23.344,30.187-23.344,30.187h-190.77c0,0-23.344,6-23.344-30.187C427.455,235.332,450.799,241.33,450.799,241.33z"/>
<path id="cloudL_1_" opacity="0.5" fill="#FFFFFF" d="M88.741,256.283H241.36c0,0,18.675,0.513,18.675,20.055
	s-18.675,20.055-18.675,20.055H88.741c0,0-18.674,3.985-18.674-20.055S88.741,256.283,88.741,256.283z"/>
<path id="cloudL2_1_" opacity="0.8" fill="#FFFFFF" d="M245.848,318.245h108.261c0,0,13.246,0.378,13.246,14.79
	c0,14.411-13.246,14.79-13.246,14.79H245.848c0,0-13.246,2.939-13.246-14.79C232.602,315.307,245.848,318.245,245.848,318.245z"/>
<path id="cloudR2_1_" opacity="0.8" fill="#FFFFFF" d="M498.281,306.083h96.553c0,0,11.812,0.422,11.812,16.536
	c0,16.115-11.812,16.537-11.812,16.537h-96.553c0,0-11.812,3.287-11.812-16.537C486.469,302.797,498.281,306.083,498.281,306.083z"
	/>
<path id="cloudL3_1_" opacity="0.5" fill="#FFFFFF" d="M128.647,299.389h152.619c0,0,18.675,0.477,18.675,18.675
	c0,18.198-18.675,18.674-18.675,18.674H128.647c0,0-18.675,3.712-18.675-18.674C109.972,295.677,128.647,299.389,128.647,299.389z"
	/>
<path id="cloudPuffR_1_" fill="#EBECF2" d="M571.627,325.29h124.332c0,0-5.229-11.898-10.818-16.924
	c-7.881-7.084-25.016-2.193-25.016-2.193s-6.385-9.414-17.439-13.509c-13.27-4.914-27.08-7.368-43.355-2.057
	C587.867,294.348,570.352,305.745,571.627,325.29z"/>
<path id="cloudPuffL_1_" fill="#FFFFFF" d="M448.535,312.663H177.327c0,0,11.406-24.646,23.6-35.057
	c17.19-14.674,54.567-4.542,54.567-4.542s13.926-19.502,38.041-27.984c28.94-10.18,59.067-15.262,94.568-4.26
	C413.107,248.568,451.314,272.176,448.535,312.663z"/>
<path id="cloudL4_1_" opacity="0.5" fill="#FFFFFF" d="M267.614,336.868h132.606c0,0,16.225,0.5,16.225,19.51
	c0,19.01-16.225,19.509-16.225,19.509H267.614c0,0-16.226,3.877-16.226-19.509S267.614,336.868,267.614,336.868z"/>
<path id="cloudC_1_" opacity="0.6" fill="#FFFFFF" d="M400.494,332.023h90.551c0,0,11.08,0.283,11.08,11.079
	c0,10.797-11.08,11.081-11.08,11.081h-90.551c0,0-11.081,2.202-11.081-11.081C389.414,329.821,400.494,332.023,400.494,332.023z"/>
<path id="cloudR3_1_" opacity="0.6" fill="#FFFFFF" d="M534.42,340.491h103.496c0,0,12.664,0.385,12.664,15.042
	c0,14.657-12.664,15.042-12.664,15.042H534.42c0,0-12.664,2.99-12.664-15.042C521.756,337.501,534.42,340.491,534.42,340.491z"/>
<path id="cloudPuffC_1_" opacity="0.9" fill="#EBECF2" d="M546.084,326.579H356.711c0,0,7.964-18.122,16.479-25.776
	c12.003-10.791,38.102-3.34,38.102-3.34s9.725-14.34,26.561-20.577c20.209-7.485,41.246-11.222,66.035-3.133
	C521.346,279.451,548.025,296.81,546.084,326.579z"/>
<path id="cloudRtiny_1_" opacity="0.3" fill="#FFFFFF" d="M677.799,313.195h29.559c0,0,3.617,0.385,3.617,15.042
	c0,14.658-3.617,15.043-3.617,15.043h-29.559c0,0-3.617,2.99-3.617-15.043C674.182,310.206,677.799,313.195,677.799,313.195z"/>
</svg>
