<?xml version="1.0" encoding="utf-8"?>
<!-- Generator: Adobe Illustrator 16.0.0, SVG Export Plug-In . SVG Version: 6.00 Build 0)  -->
<!DOCTYPE svg PUBLIC "-//W3C//DTD SVG 1.1//EN" "http://www.w3.org/Graphics/SVG/1.1/DTD/svg11.dtd">
<svg version="1.1" id="Layer_1" xmlns="http://www.w3.org/2000/svg" xmlns:xlink="http://www.w3.org/1999/xlink" x="0px" y="0px"
	 width="1000px" height="348.57px" viewBox="0 0 1000 348.57" enable-background="new 0 0 1000 348.57" xml:space="preserve">
<path id="backR" opacity="0.3" fill="#FFFFFF" d="M655.759,273.873l238.617,0.398c0,0,104.713-15.668,104.307-110.385
	C998.278,69.169,897.679,53.737,897.679,53.737l-241.92,1.912c0,0-99.191,6.289-99.191,108.238S655.759,273.873,655.759,273.873z"/>
<path id="backL" opacity="0.3" fill="#FFFFFF" d="M170.733,347.646l278.227,0.465c0,0,122.092-18.281,121.622-128.805
	C570.108,108.786,452.809,90.778,452.809,90.778l-282.076,2.23c0,0-115.656,7.338-115.656,126.298
	C55.077,338.268,170.733,347.646,170.733,347.646z"/>
<path id="puffR" fill="#FFFFFF" d="M555.562,13.822h295.251c0,0,36.128,1.195,36.128,46.72c0,45.525-36.128,46.718-36.128,46.718
	H555.562c0,0-36.126,9.285-36.126-46.718S555.562,13.822,555.562,13.822z"/>
<path id="smallL4" opacity="0.5" fill="#FFFFFF" d="M30.217,33.964h236.205c0,0,28.902,0.794,28.902,31.039
	s-28.902,31.038-28.902,31.038H30.217c0,0-28.901,6.168-28.901-31.038S30.217,33.964,30.217,33.964z"/>
<path id="smallL" opacity="0.8" fill="#FFFFFF" d="M254.368,129.862H421.92c0,0,20.501,0.585,20.501,22.89
	s-20.501,22.889-20.501,22.889H254.368c0,0-20.501,4.55-20.501-22.889S254.368,129.862,254.368,129.862z"/>
<path id="smallR" opacity="0.8" fill="#FFFFFF" d="M629.054,111.039h149.43c0,0,18.283,0.654,18.283,25.594
	s-18.283,25.593-18.283,25.593h-149.43c0,0-18.285,5.086-18.285-25.593S629.054,111.039,629.054,111.039z"/>
<path id="smallL3" opacity="0.5" fill="#FFFFFF" d="M109.765,98.207H345.97c0,0,28.902,0.739,28.902,28.903
	s-28.902,28.902-28.902,28.902H109.765c0,0-28.902,5.744-28.902-28.902S109.765,98.207,109.765,98.207z"/>
<path id="frontR" fill="#EBECF2" d="M742.565,140.765h192.428c0,0-8.092-18.415-16.744-26.192
	c-12.197-10.964-38.717-3.394-38.717-3.394s-9.881-14.571-26.99-20.908c-20.535-7.606-41.91-11.403-67.1-3.183
	C767.702,92.876,740.593,110.516,742.565,140.765z"/>
<path id="puffL" fill="#FFFFFF" d="M568.062,121.223H148.32c0,0,17.652-38.146,36.525-54.256
	c26.605-22.712,84.452-7.031,84.452-7.031s21.553-30.183,58.875-43.311c44.79-15.755,91.416-23.62,146.36-6.593
	C513.229,22.023,572.364,58.562,568.062,121.223z"/>
<path id="frontMid" opacity="0.9" fill="#EBECF2" d="M703.034,142.76H409.947c0,0,12.326-28.048,25.504-39.894
	c18.577-16.7,58.969-5.17,58.969-5.17s15.05-22.193,41.109-31.845c31.275-11.584,63.834-17.368,102.199-4.848
	C664.747,69.821,706.04,96.687,703.034,142.76z"/>
<path id="smallL2" opacity="0.5" fill="#FFFFFF" d="M288.054,158.685h205.231c0,0,25.112,0.772,25.112,30.194
	s-25.112,30.193-25.112,30.193H288.054c0,0-25.112,6.001-25.112-30.193C262.942,152.685,288.054,158.685,288.054,158.685z"/>
<path id="smallMid" opacity="0.6" fill="#FFFFFF" d="M484.71,151.185h140.143c0,0,17.148,0.438,17.148,17.148
	s-17.148,17.148-17.148,17.148H484.71c0,0-17.148,3.407-17.148-17.148C467.562,147.777,484.71,151.185,484.71,151.185z"/>
<path id="smallR2" opacity="0.5" fill="#FFFFFF" d="M677.981,164.291H838.16c0,0,19.6,0.596,19.6,23.281s-19.6,23.28-19.6,23.28
	H677.981c0,0-19.6,4.627-19.6-23.28S677.981,164.291,677.981,164.291z"/>
</svg>
