<?xml version="1.0" encoding="utf-8"?>
<!-- Generator: Adobe Illustrator 16.0.0, SVG Export Plug-In . SVG Version: 6.00 Build 0)  -->
<!DOCTYPE svg PUBLIC "-//W3C//DTD SVG 1.1//EN" "http://www.w3.org/Graphics/SVG/1.1/DTD/svg11.dtd">
<svg version="1.1" id="Layer_1" xmlns="http://www.w3.org/2000/svg" xmlns:xlink="http://www.w3.org/1999/xlink" x="0px" y="0px"
	 width="984.167px" height="334.408px" viewBox="0 0 984.167 334.408" enable-background="new 0 0 984.167 334.408"
	 xml:space="preserve">
<g id="cloudGroups">
	<g id="cloudGroupL">
		<g id="cloudLargeL" opacity="0.3">
			<g>
				<defs>
					<rect id="SVGID_1_" x="54.587" y="80.347" width="507.951" height="254.061"/>
				</defs>
				<clipPath id="SVGID_2_">
					<use xlink:href="#SVGID_1_"  overflow="visible"/>
				</clipPath>
				<path clip-path="url(#SVGID_2_)" fill="#FFFFFF" d="M435.508,334.404H181.617c-70.158,0-127.03-56.874-127.03-127.03
					c0-70.156,56.872-127.03,127.03-127.03h253.891c70.156,0,127.03,56.874,127.03,127.03
					C562.538,277.53,505.664,334.404,435.508,334.404"/>
			</g>
		</g>
		<g id="cloudSmallL1" opacity="0.5">
			<g>
				<defs>
					<rect id="SVGID_3_" x="267.895" y="163.06" width="237.148" height="46.617"/>
				</defs>
				<clipPath id="SVGID_4_">
					<use xlink:href="#SVGID_3_"  overflow="visible"/>
				</clipPath>
				<path clip-path="url(#SVGID_4_)" fill="#FFFFFF" d="M481.731,209.679H291.209c-12.875,0-23.314-10.438-23.314-23.311
					c0-12.877,10.438-23.315,23.314-23.315h190.522c12.876,0,23.312,10.438,23.312,23.315
					C505.043,199.241,494.608,209.679,481.731,209.679"/>
			</g>
		</g>
		<g id="cloudSmallL2" opacity="0.5">
			<g>
				<defs>
					<rect id="SVGID_5_" x="208.351" y="117.029" width="237.146" height="46.616"/>
				</defs>
				<clipPath id="SVGID_6_">
					<use xlink:href="#SVGID_5_"  overflow="visible"/>
				</clipPath>
				<path clip-path="url(#SVGID_6_)" fill="#FFFFFF" d="M422.186,163.648H231.664c-12.875,0-23.313-10.438-23.313-23.312
					c0-12.875,10.438-23.314,23.313-23.314h190.522c12.876,0,23.312,10.438,23.312,23.314
					C445.498,153.21,435.062,163.648,422.186,163.648"/>
			</g>
		</g>
		<g id="cloudSmallL3" opacity="0.5">
			<g>
				<defs>
					<rect id="SVGID_7_" x="73.823" y="98.632" width="294.008" height="57.806"/>
				</defs>
				<clipPath id="SVGID_8_">
					<use xlink:href="#SVGID_7_"  overflow="visible"/>
				</clipPath>
				<path clip-path="url(#SVGID_8_)" fill="#FFFFFF" d="M338.93,156.44H102.726c-15.963,0-28.903-12.94-28.903-28.902
					c0-15.962,12.94-28.904,28.903-28.904H338.93c15.965,0,28.9,12.941,28.9,28.904C367.83,143.5,354.895,156.44,338.93,156.44"/>
			</g>
		</g>
		<g id="cloudMedL" opacity="0.5">
			<g>
				<defs>
					<rect id="SVGID_9_" y="41.567" width="294.008" height="57.806"/>
				</defs>
				<clipPath id="SVGID_10_">
					<use xlink:href="#SVGID_9_"  overflow="visible"/>
				</clipPath>
				<path clip-path="url(#SVGID_10_)" fill="#FFFFFF" d="M265.107,99.373H28.903C12.94,99.373,0,86.431,0,70.471
					c0-15.963,12.94-28.904,28.903-28.904h236.204c15.964,0,28.902,12.941,28.902,28.904
					C294.009,86.431,281.071,99.373,265.107,99.373"/>
			</g>
		</g>
		<g opacity="0.7">
			<g>
				<defs>
					<rect id="SVGID_11_" x="325.39" y="54.756" width="237.146" height="46.629"/>
				</defs>
				<clipPath id="SVGID_12_">
					<use xlink:href="#SVGID_11_"  overflow="visible"/>
				</clipPath>
				<path clip-path="url(#SVGID_12_)" fill="#FFFFFF" d="M539.225,101.382H348.703c-12.876,0-23.313-10.438-23.313-23.312
					c0-12.876,10.437-23.314,23.313-23.314h190.522c12.877,0,23.311,10.438,23.311,23.314
					C562.536,90.945,552.102,101.382,539.225,101.382"/>
			</g>
		</g>
		<g id="cloudPuffsL">
			<path fill="#FFFFFF" d="M250.557,113.994c0-18.613,6.256-36.167,17.28-51.687c-10.893-4.93-22.975-7.699-35.71-7.699
				c-42.991,0-78.653,31.302-85.489,72.354h104.971C250.937,122.705,250.557,118.383,250.557,113.994"/>
			<path fill="#FFFFFF" d="M317.615,126.962h249.522c0.674-4.259,1.053-8.579,1.053-12.968C568.19,51.037,497.084,0,409.373,0
				c-61.777,0-115.28,25.337-141.537,62.308C293.712,74.025,312.808,98.071,317.615,126.962"/>
			<path fill="#FFFFFF" d="M251.609,126.962h66.01c-4.812-28.891-23.906-52.937-49.784-64.654
				c-11.023,15.518-17.279,33.072-17.279,51.686C250.557,118.383,250.937,122.703,251.609,126.962"/>
		</g>
		<g id="cloudPuffsMid">
			<path fill="#EBEDF3" d="M478.11,134.21c0-12.973,4.361-25.209,12.043-36.025c-7.591-3.437-16.012-5.367-24.889-5.367
				c-29.964,0-54.821,21.818-59.585,50.431h73.165C478.375,140.283,478.11,137.27,478.11,134.21"/>
			<path fill="#EBEDF3" d="M524.849,143.25h173.917c0.468-2.968,0.734-5.98,0.734-9.039c0-43.881-49.561-79.454-110.695-79.454
				c-43.06,0-80.35,17.66-98.652,43.429C508.191,106.352,521.499,123.112,524.849,143.25"/>
			<path fill="#EBEDF3" d="M478.843,143.25h46.009c-3.354-20.138-16.661-36.897-34.699-45.064
				c-7.682,10.816-12.043,23.051-12.043,36.025C478.11,137.27,478.375,140.281,478.843,143.25"/>
		</g>
	</g>
</g>
</svg>
