<svg id='whole-scene' version="1.1" xmlns="http://www.w3.org/2000/svg" xmlns:xlink="http://www.w3.org/1999/xlink" x="0px" y="0px" width="612px"
	 height="1806.05px" viewBox="0 0 612 1806.05" enable-background="new 0 0 612 1806.05" xml:space="preserve">
<g id="Sky">
	<g>
		<defs>
			<rect id="SVGID_1_" x="0.25" width="611.5" height="1578"/>
		</defs>
		<clipPath id="SVGID_2_">
			<use xlink:href="#SVGID_1_"  overflow="visible"/>
		</clipPath>
		
			<linearGradient id="SVGID_3_" gradientUnits="userSpaceOnUse" x1="0" y1="1806.0508" x2="1" y2="1806.0508" gradientTransform="matrix(-9.1257 1427.395 1427.395 9.1257 -2577635.5 -16397.3516)">
			<stop  offset="0" style="stop-color:#FFFFFF"/>
			<stop  offset="1" style="stop-color:#29ABE2"/>
		</linearGradient>
		<polygon clip-path="url(#SVGID_2_)" fill="url(#SVGID_3_)" points="621.838,0.064 611.725,1581.909 -9.838,1577.936 0.275,-3.909 
					"/>
	</g>
</g>
<g id="layer1">
	<g>
		<defs>
			<rect id="SVGID_4_" width="612" height="1806.05"/>
		</defs>
		<clipPath id="SVGID_5_">
			<use xlink:href="#SVGID_4_"  overflow="visible"/>
		</clipPath>
		<g id="Grass1" clip-path="url(#SVGID_5_)">
			<defs>
				<polygon id="SVGID_6_" points="0,627.526 0,828.603 612,828.603 612,627.526 611.873,627.526 606.334,614.3 600.792,627.526 
					600.542,627.526 595.001,614.294 589.455,627.526 589.211,627.526 583.666,614.288 578.12,627.526 577.88,627.526 
					572.333,614.284 566.783,627.526 566.549,627.526 561.001,614.277 555.448,627.526 555.218,627.526 549.667,614.271 
					544.114,627.526 543.887,627.526 538.334,614.266 532.777,627.526 532.556,627.526 527,614.26 521.442,627.526 521.225,627.526 
					515.667,614.255 510.106,627.526 509.895,627.526 504.334,614.249 498.77,627.526 498.562,627.526 493,614.244 487.435,627.526 
					487.233,627.526 481.667,614.238 476.099,627.526 475.902,627.526 470.334,614.232 464.764,627.526 464.569,627.526 
					459,614.227 453.427,627.526 453.24,627.526 447.667,614.221 442.092,627.526 441.907,627.526 436.334,614.215 430.756,627.526 
					430.576,627.526 425,614.21 419.421,627.526 419.246,627.526 413.667,614.204 408.085,627.526 407.914,627.526 402.333,614.199 
					396.749,627.526 396.584,627.526 391,614.193 385.414,627.526 385.253,627.526 379.668,614.187 374.078,627.526 
					373.922,627.526 368.333,614.182 362.742,627.526 362.591,627.526 357,614.175 351.406,627.526 351.259,627.526 345.667,614.17 
					340.07,627.526 339.929,627.526 334.334,614.165 328.735,627.526 328.598,627.526 323,614.159 317.398,627.526 317.267,627.526 
					311.666,614.154 306.064,627.526 305.936,627.526 300.334,614.148 294.727,627.526 294.605,627.526 289,614.142 
					283.392,627.526 283.274,627.526 277.667,614.137 272.056,627.526 271.943,627.526 266.333,614.131 260.721,627.526 
					260.612,627.526 255.001,614.126 249.385,627.526 249.281,627.526 243.667,614.12 238.05,627.526 237.951,627.526 
					232.334,614.114 226.714,627.526 226.62,627.526 221,614.108 215.378,627.526 215.289,627.526 209.667,614.103 204.043,627.526 
					203.957,627.526 198.333,614.097 192.707,627.526 192.627,627.526 187,614.092 181.371,627.526 181.296,627.526 
					175.667,614.086 170.035,627.526 169.965,627.526 164.334,614.08 158.7,627.526 158.633,627.526 153,614.075 147.364,627.526 
					147.303,627.526 141.667,614.069 136.029,627.526 135.972,627.526 130.333,614.062 124.692,627.526 124.641,627.526 
					119,614.058 113.357,627.526 113.31,627.526 107.667,614.052 102.021,627.526 101.979,627.526 96.333,614.047 90.686,627.526 
					90.648,627.526 85.001,614.04 79.35,627.526 79.317,627.526 73.667,614.035 68.014,627.526 67.986,627.526 62.334,614.03 
					56.678,627.526 56.655,627.526 51,614.024 45.343,627.526 45.324,627.526 39.667,614.018 34.007,627.526 33.993,627.526 
					28.334,614.013 22.671,627.526 22.661,627.526 17,614.007 11.335,627.526 11.331,627.526 5.667,614.002 				"/>
			</defs>
			<clipPath id="SVGID_7_">
				<use xlink:href="#SVGID_6_"  overflow="visible"/>
			</clipPath>
			
				<linearGradient id="SVGID_8_" gradientUnits="userSpaceOnUse" x1="0" y1="1806.0498" x2="1" y2="1806.0498" gradientTransform="matrix(4.5001 277.506 277.506 -4.5001 -500886.1875 8705.4492)">
				<stop  offset="0" style="stop-color:#8CC63F"/>
				<stop  offset="1" style="stop-color:#009445"/>
			</linearGradient>
			<polygon clip-path="url(#SVGID_7_)" fill="url(#SVGID_8_)" points="611.839,604.08 615.479,828.546 0.161,838.524 
				-3.479,614.059 			"/>
		</g>
		<g id="Grass2" clip-path="url(#SVGID_5_)">
			<defs>
				<polygon id="SVGID_9_" points="0,783.618 0,958.725 612,958.725 612,783.618 611.873,783.618 606.334,772.099 600.792,783.618 
					600.542,783.618 595.002,772.095 589.455,783.618 589.211,783.618 583.666,772.09 578.12,783.618 577.88,783.618 
					572.333,772.085 566.783,783.618 566.549,783.618 561.001,772.081 555.448,783.618 555.218,783.618 549.668,772.075 
					544.114,783.618 543.887,783.618 538.335,772.071 532.777,783.618 532.556,783.618 527,772.066 521.442,783.618 
					521.225,783.618 515.667,772.061 510.107,783.618 509.896,783.618 504.334,772.055 498.77,783.618 498.562,783.618 
					493.001,772.051 487.435,783.618 487.234,783.618 481.668,772.045 476.1,783.618 475.903,783.618 470.335,772.041 
					464.764,783.618 464.569,783.618 459,772.036 453.428,783.618 453.241,783.618 447.667,772.031 442.092,783.618 
					441.907,783.618 436.334,772.027 430.756,783.618 430.576,783.618 425.001,772.021 419.422,783.618 419.248,783.618 
					413.668,772.017 408.085,783.618 407.914,783.618 402.333,772.011 396.75,783.618 396.586,783.618 391,772.007 385.415,783.618 
					385.255,783.618 379.668,772.002 374.078,783.618 373.924,783.618 368.334,771.997 362.743,783.618 362.593,783.618 
					357.001,771.992 351.406,783.618 351.259,783.618 345.668,771.987 340.071,783.618 339.93,783.618 334.334,771.982 
					328.737,783.618 328.599,783.618 323,771.977 317.399,783.618 317.268,783.618 311.667,771.972 306.064,783.618 
					305.937,783.618 300.334,771.967 294.727,783.618 294.605,783.618 289,771.963 283.392,783.618 283.274,783.618 
					277.667,771.958 272.056,783.618 271.943,783.618 266.333,771.953 260.721,783.618 260.612,783.618 255.001,771.948 
					249.385,783.618 249.281,783.618 243.667,771.943 238.05,783.618 237.951,783.618 232.334,771.938 226.714,783.618 
					226.62,783.618 221,771.934 215.378,783.618 215.289,783.618 209.667,771.928 204.043,783.618 203.957,783.618 198.333,771.924 
					192.707,783.618 192.627,783.618 187,771.919 181.371,783.618 181.296,783.618 175.667,771.914 170.035,783.618 
					169.965,783.618 164.334,771.909 158.7,783.618 158.633,783.618 153,771.904 147.364,783.618 147.303,783.618 141.667,771.9 
					136.029,783.618 135.972,783.618 130.333,771.894 124.692,783.618 124.641,783.618 119,771.889 113.357,783.618 113.31,783.618 
					107.667,771.884 102.021,783.618 101.979,783.618 96.333,771.879 90.686,783.618 90.648,783.618 85.001,771.874 79.35,783.618 
					79.317,783.618 73.667,771.87 68.014,783.618 67.986,783.618 62.334,771.865 56.678,783.618 56.655,783.618 51,771.86 
					45.343,783.618 45.324,783.618 39.667,771.855 34.007,783.618 33.993,783.618 28.334,771.85 22.671,783.618 22.661,783.618 
					17,771.845 11.335,783.618 11.331,783.618 5.667,771.841 				"/>
			</defs>
			<clipPath id="SVGID_10_">
				<use xlink:href="#SVGID_9_"  overflow="visible"/>
			</clipPath>
			
				<linearGradient id="SVGID_11_" gradientUnits="userSpaceOnUse" x1="0" y1="1806.0498" x2="1" y2="1806.0498" gradientTransform="matrix(0 370.4815 370.4815 0 -668802 589.0498)">
				<stop  offset="0" style="stop-color:#8CC63F"/>
				<stop  offset="1" style="stop-color:#009445"/>
			</linearGradient>
			<rect y="771.841" clip-path="url(#SVGID_10_)" fill="url(#SVGID_11_)" width="612" height="186.884"/>
		</g>
		<g id="Grass3" clip-path="url(#SVGID_5_)">
			<defs>
				<polygon id="SVGID_12_" points="0,937.87 0,1112.977 612,1112.977 612,937.87 611.873,937.87 606.334,926.351 600.792,937.87 
					600.542,937.87 595.002,926.347 589.455,937.87 589.211,937.87 583.666,926.341 578.12,937.87 577.88,937.87 572.333,926.336 
					566.783,937.87 566.549,937.87 561.001,926.331 555.448,937.87 555.218,937.87 549.668,926.327 544.114,937.87 543.887,937.87 
					538.335,926.321 532.777,937.87 532.556,937.87 527,926.316 521.442,937.87 521.225,937.87 515.667,926.312 510.107,937.87 
					509.896,937.87 504.334,926.307 498.77,937.87 498.562,937.87 493.001,926.303 487.435,937.87 487.234,937.87 481.668,926.297 
					476.1,937.87 475.903,937.87 470.335,926.292 464.764,937.87 464.569,937.87 459,926.288 453.428,937.87 453.241,937.87 
					447.667,926.283 442.092,937.87 441.907,937.87 436.334,926.278 430.756,937.87 430.576,937.87 425.001,926.272 419.422,937.87 
					419.248,937.87 413.668,926.268 408.085,937.87 407.914,937.87 402.333,926.263 396.75,937.87 396.586,937.87 391,926.259 
					385.415,937.87 385.255,937.87 379.668,926.253 374.078,937.87 373.924,937.87 368.334,926.249 362.743,937.87 362.593,937.87 
					357.001,926.243 351.406,937.87 351.259,937.87 345.668,926.239 340.071,937.87 339.93,937.87 334.334,926.232 328.737,937.87 
					328.599,937.87 323,926.229 317.399,937.87 317.268,937.87 311.667,926.224 306.064,937.87 305.937,937.87 300.334,926.219 
					294.727,937.87 294.605,937.87 289,926.214 283.392,937.87 283.274,937.87 277.667,926.209 272.056,937.87 271.943,937.87 
					266.333,926.205 260.721,937.87 260.612,937.87 255.001,926.199 249.385,937.87 249.281,937.87 243.667,926.194 238.05,937.87 
					237.951,937.87 232.334,926.189 226.714,937.87 226.62,937.87 221,926.185 215.378,937.87 215.289,937.87 209.667,926.18 
					204.043,937.87 203.957,937.87 198.333,926.175 192.707,937.87 192.627,937.87 187,926.17 181.371,937.87 181.296,937.87 
					175.667,926.165 170.035,937.87 169.965,937.87 164.334,926.161 158.7,937.87 158.633,937.87 153,926.156 147.364,937.87 
					147.303,937.87 141.667,926.15 136.029,937.87 135.972,937.87 130.333,926.146 124.692,937.87 124.641,937.87 119,926.141 
					113.357,937.87 113.31,937.87 107.667,926.136 102.021,937.87 101.979,937.87 96.333,926.131 90.686,937.87 90.648,937.87 
					85.001,926.125 79.35,937.87 79.317,937.87 73.667,926.122 68.014,937.87 67.986,937.87 62.334,926.116 56.678,937.87 
					56.655,937.87 51,926.11 45.343,937.87 45.324,937.87 39.667,926.106 34.007,937.87 33.993,937.87 28.334,926.101 
					22.671,937.87 22.661,937.87 17,926.097 11.335,937.87 11.331,937.87 5.667,926.092 				"/>
			</defs>
			<clipPath id="SVGID_13_">
				<use xlink:href="#SVGID_12_"  overflow="visible"/>
			</clipPath>
			
				<linearGradient id="SVGID_14_" gradientUnits="userSpaceOnUse" x1="0" y1="1806.0498" x2="1" y2="1806.0498" gradientTransform="matrix(0 370.4815 370.4815 0 -668802 743.2998)">
				<stop  offset="0" style="stop-color:#8CC63F"/>
				<stop  offset="1" style="stop-color:#009445"/>
			</linearGradient>
			<rect y="926.092" clip-path="url(#SVGID_13_)" fill="url(#SVGID_14_)" width="612" height="186.885"/>
		</g>
		<g id="Grass4" clip-path="url(#SVGID_5_)">
			<defs>
				<polygon id="SVGID_15_" points="4.815,1092.175 4.815,1267.281 612,1267.281 612,1082.424 611.149,1080.655 605.607,1092.175 
					605.357,1092.175 599.817,1080.65 594.27,1092.175 594.026,1092.175 588.481,1080.646 582.935,1092.175 582.694,1092.175 
					577.148,1080.641 571.598,1092.175 571.363,1092.175 565.816,1080.636 560.263,1092.175 560.032,1092.175 554.483,1080.632 
					548.929,1092.175 548.701,1092.175 543.15,1080.627 537.592,1092.175 537.37,1092.175 531.814,1080.622 526.257,1092.175 
					526.039,1092.175 520.482,1080.617 514.922,1092.175 514.711,1092.175 509.149,1080.61 503.585,1092.175 503.377,1092.175 
					497.816,1080.606 492.25,1092.175 492.049,1092.175 486.483,1080.601 480.915,1092.175 480.718,1092.175 475.15,1080.597 
					469.579,1092.175 469.384,1092.175 463.815,1080.592 458.243,1092.175 458.056,1092.175 452.482,1080.587 446.907,1092.175 
					446.722,1092.175 441.149,1080.583 435.571,1092.175 435.391,1092.175 429.816,1080.577 424.237,1092.175 424.062,1092.175 
					418.483,1080.573 412.899,1092.175 412.729,1092.175 407.148,1080.566 401.565,1092.175 401.4,1092.175 395.815,1080.562 
					390.23,1092.175 390.069,1092.175 384.482,1080.558 378.893,1092.175 378.738,1092.175 373.149,1080.553 367.558,1092.175 
					367.407,1092.175 361.816,1080.548 356.221,1092.175 356.074,1092.175 350.483,1080.543 344.886,1092.175 344.745,1092.175 
					339.148,1080.538 333.552,1092.175 333.414,1092.175 327.815,1080.533 322.214,1092.175 322.083,1092.175 316.482,1080.528 
					310.879,1092.175 310.752,1092.175 305.149,1080.522 299.542,1092.175 299.42,1092.175 293.815,1080.519 288.207,1092.175 
					288.089,1092.175 282.482,1080.514 276.871,1092.175 276.758,1092.175 271.148,1080.509 265.536,1092.175 265.427,1092.175 
					259.815,1080.504 254.2,1092.175 254.096,1092.175 248.482,1080.5 242.864,1092.175 242.766,1092.175 237.148,1080.494 
					231.529,1092.175 231.435,1092.175 225.815,1080.49 220.193,1092.175 220.104,1092.175 214.482,1080.483 208.858,1092.175 
					208.772,1092.175 203.148,1080.479 197.522,1092.175 197.442,1092.175 191.815,1080.474 186.186,1092.175 186.111,1092.175 
					180.482,1080.47 174.85,1092.175 174.78,1092.175 169.149,1080.466 163.515,1092.175 163.448,1092.175 157.815,1080.46 
					152.178,1092.175 152.118,1092.175 146.482,1080.456 140.844,1092.175 140.787,1092.175 135.148,1080.45 129.507,1092.175 
					129.456,1092.175 123.815,1080.444 118.172,1092.175 118.125,1092.175 112.482,1080.439 106.836,1092.175 106.794,1092.175 
					101.148,1080.435 95.501,1092.175 95.462,1092.175 89.816,1080.43 84.164,1092.175 84.131,1092.175 78.482,1080.426 
					72.829,1092.175 72.8,1092.175 67.149,1080.42 61.493,1092.175 61.47,1092.175 55.815,1080.416 50.158,1092.175 
					50.139,1092.175 44.482,1080.411 38.822,1092.175 38.808,1092.175 33.148,1080.406 27.486,1092.175 27.476,1092.175 
					21.815,1080.4 16.15,1092.175 16.146,1092.175 10.482,1080.396 				"/>
			</defs>
			<clipPath id="SVGID_16_">
				<use xlink:href="#SVGID_15_"  overflow="visible"/>
			</clipPath>
			
				<linearGradient id="SVGID_17_" gradientUnits="userSpaceOnUse" x1="0" y1="1806.043" x2="1" y2="1806.043" gradientTransform="matrix(0 370.4815 370.4815 0 -668797.25 897.5498)">
				<stop  offset="0" style="stop-color:#8CC63F"/>
				<stop  offset="1" style="stop-color:#009445"/>
			</linearGradient>
			<rect x="4.815" y="1080.396" clip-path="url(#SVGID_16_)" fill="url(#SVGID_17_)" width="607.185" height="186.885"/>
		</g>
		<g id="BoardTrees" clip-path="url(#SVGID_5_)">
			<defs>
				<rect id="SVGID_18_" y="0.002" width="612" height="1806.048"/>
			</defs>
			<clipPath id="SVGID_19_">
				<use xlink:href="#SVGID_18_"  overflow="visible"/>
			</clipPath>
			<g clip-path="url(#SVGID_19_)">
				<defs>
					<rect id="SVGID_20_" x="-6.565" y="307.73" width="355.881" height="178"/>
				</defs>
				<clipPath id="SVGID_21_">
					<use xlink:href="#SVGID_20_"  overflow="visible"/>
				</clipPath>
				<path clip-path="url(#SVGID_21_)" fill="#FFFFFF" d="M260.315,485.728H82.435c-49.154,0-89-39.847-89-89
					c0-49.153,39.846-89,89-89h177.881c49.152,0,89,39.847,89,89C349.315,445.881,309.468,485.728,260.315,485.728"/>
			</g>
			<g clip-path="url(#SVGID_19_)">
				<defs>
					<rect id="SVGID_22_" x="353.174" y="286.3" width="309.754" height="154.93"/>
				</defs>
				<clipPath id="SVGID_23_">
					<use xlink:href="#SVGID_22_"  overflow="visible"/>
				</clipPath>
				<path clip-path="url(#SVGID_23_)" fill="#FFFFFF" d="M585.464,441.23H430.639c-42.783,0-77.465-34.682-77.465-77.464
					c0-42.783,34.682-77.465,77.465-77.465h154.825c42.782,0,77.465,34.682,77.465,77.465
					C662.929,406.549,628.246,441.23,585.464,441.23"/>
			</g>
			<g clip-path="url(#SVGID_19_)">
				<defs>
					<rect id="SVGID_24_" x="142.883" y="365.68" width="166.15" height="32.66"/>
				</defs>
				<clipPath id="SVGID_25_">
					<use xlink:href="#SVGID_24_"  overflow="visible"/>
				</clipPath>
				<path clip-path="url(#SVGID_25_)" fill="#FFFFFF" d="M292.701,398.342H159.217c-9.021,0-16.334-7.313-16.334-16.333
					c0-9.021,7.313-16.334,16.334-16.334h133.484c9.021,0,16.332,7.313,16.332,16.334
					C309.033,391.029,301.722,398.342,292.701,398.342"/>
			</g>
			<g clip-path="url(#SVGID_19_)">
				<defs>
					<rect id="SVGID_26_" x="279.545" y="354.37" width="95.716" height="18.82"/>
				</defs>
				<clipPath id="SVGID_27_">
					<use xlink:href="#SVGID_26_"  overflow="visible"/>
				</clipPath>
				<path clip-path="url(#SVGID_27_)" fill="#FFFFFF" d="M365.853,373.188h-76.897c-5.198,0-9.41-4.213-9.41-9.409
					c0-5.197,4.212-9.41,9.41-9.41h76.897c5.196,0,9.408,4.213,9.408,9.41C375.261,368.976,371.049,373.188,365.853,373.188"/>
			</g>
			<g clip-path="url(#SVGID_19_)">
				<defs>
					<rect id="SVGID_28_" x="101.165" y="333.43" width="166.15" height="32.66"/>
				</defs>
				<clipPath id="SVGID_29_">
					<use xlink:href="#SVGID_28_"  overflow="visible"/>
				</clipPath>
				<path clip-path="url(#SVGID_29_)" fill="#FFFFFF" d="M250.982,366.092H117.499c-9.021,0-16.334-7.313-16.334-16.333
					c0-9.021,7.313-16.334,16.334-16.334h133.484c9.021,0,16.332,7.313,16.332,16.334
					C267.314,358.779,260.003,366.092,250.982,366.092"/>
			</g>
			<g clip-path="url(#SVGID_19_)">
				<defs>
					<rect id="SVGID_30_" x="6.912" y="320.54" width="205.988" height="40.5"/>
				</defs>
				<clipPath id="SVGID_31_">
					<use xlink:href="#SVGID_30_"  overflow="visible"/>
				</clipPath>
				<path clip-path="url(#SVGID_31_)" fill="#FFFFFF" d="M192.651,361.042H27.162c-11.184,0-20.25-9.066-20.25-20.249
					c0-11.184,9.066-20.251,20.25-20.251h165.49c11.185,0,20.248,9.067,20.248,20.251
					C212.899,351.976,203.836,361.042,192.651,361.042"/>
			</g>
			<g clip-path="url(#SVGID_19_)">
				<defs>
					<rect id="SVGID_32_" x="-44.81" y="280.56" width="205.988" height="40.5"/>
				</defs>
				<clipPath id="SVGID_33_">
					<use xlink:href="#SVGID_32_"  overflow="visible"/>
				</clipPath>
				<path clip-path="url(#SVGID_33_)" fill="#FFFFFF" d="M140.93,321.059H-24.56c-11.184,0-20.25-9.067-20.25-20.249
					c0-11.184,9.066-20.251,20.25-20.251h165.49c11.184,0,20.249,9.067,20.249,20.251
					C161.179,311.992,152.114,321.059,140.93,321.059"/>
			</g>
			<g clip-path="url(#SVGID_19_)">
				<defs>
					<rect id="SVGID_34_" x="378.865" y="332.62" width="129.186" height="32.95"/>
				</defs>
				<clipPath id="SVGID_35_">
					<use xlink:href="#SVGID_34_"  overflow="visible"/>
				</clipPath>
				<path clip-path="url(#SVGID_35_)" fill="#FFFFFF" d="M395.15,332.905l96.52-0.282c9.021-0.026,16.355,7.265,16.381,16.286
					c0.027,9.021-7.264,16.354-16.285,16.381l-96.52,0.282c-9.02,0.026-16.354-7.265-16.381-16.286
					C378.84,340.266,386.131,332.932,395.15,332.905"/>
			</g>
			<g clip-path="url(#SVGID_19_)">
				<defs>
					<rect id="SVGID_36_" x="411.394" y="363.78" width="129.187" height="32.95"/>
				</defs>
				<clipPath id="SVGID_37_">
					<use xlink:href="#SVGID_36_"  overflow="visible"/>
				</clipPath>
				<path clip-path="url(#SVGID_37_)" fill="#FFFFFF" d="M427.68,364.061l96.519-0.282c9.021-0.026,16.354,7.265,16.382,16.286
					c0.025,9.021-7.266,16.354-16.287,16.381l-96.518,0.282c-9.021,0.026-16.355-7.265-16.381-16.286
					C411.367,371.421,418.658,364.087,427.68,364.061"/>
			</g>
			<g clip-path="url(#SVGID_19_)">
				<defs>
					<rect id="SVGID_38_" x="310.815" y="259.28" width="253.163" height="64.57"/>
				</defs>
				<clipPath id="SVGID_39_">
					<use xlink:href="#SVGID_38_"  overflow="visible"/>
				</clipPath>
				<path clip-path="url(#SVGID_39_)" fill="#FFFFFF" d="M342.729,259.832l189.148-0.552c17.676-0.051,32.048,14.237,32.101,31.916
					c0.051,17.676-14.237,32.048-31.917,32.101l-189.144,0.552c-17.68,0.052-32.052-14.236-32.103-31.915
					C310.762,274.256,325.05,259.884,342.729,259.832"/>
			</g>
			<g clip-path="url(#SVGID_19_)">
				<defs>
					<rect id="SVGID_40_" x="183.165" y="289.8" width="166.149" height="32.67"/>
				</defs>
				<clipPath id="SVGID_41_">
					<use xlink:href="#SVGID_40_"  overflow="visible"/>
				</clipPath>
				<path clip-path="url(#SVGID_41_)" fill="#FFFFFF" d="M332.982,322.467H199.499c-9.021,0-16.334-7.313-16.334-16.333
					c0-9.021,7.313-16.334,16.334-16.334h133.484c9.021,0,16.332,7.313,16.332,16.334
					C349.314,315.154,342.004,322.467,332.982,322.467"/>
			</g>
			<path clip-path="url(#SVGID_19_)" fill="#FFFFFF" d="M576.719,345.284c0-5.473-1.838-10.635-5.08-15.198
				c3.203-1.45,6.756-2.264,10.5-2.264c12.643,0,23.127,9.204,25.137,21.276H576.41
				C576.607,347.845,576.719,346.574,576.719,345.284"/>
			<path clip-path="url(#SVGID_19_)" fill="#FFFFFF" d="M557,349.098h-73.369c-0.199-1.252-0.311-2.523-0.311-3.814
				c0-18.512,20.907-33.519,46.698-33.519c18.166,0,33.899,7.45,41.62,18.321C564.029,333.532,558.414,340.602,557,349.098"/>
			<path clip-path="url(#SVGID_19_)" fill="#FFFFFF" d="M576.41,349.098H557c1.414-8.496,7.029-15.566,14.639-19.012
				c3.242,4.563,5.082,9.725,5.082,15.198C576.721,346.575,576.607,347.846,576.41,349.098"/>
			<path clip-path="url(#SVGID_19_)" fill="#FFFFFF" d="M130.735,331.303c0-13.041,4.383-25.34,12.106-36.213
				c-7.631-3.454-16.096-5.394-25.019-5.394c-30.12,0-55.106,21.931-59.895,50.693h73.545
				C131.001,337.406,130.735,334.378,130.735,331.303"/>
			<path clip-path="url(#SVGID_19_)" fill="#FFFFFF" d="M177.717,340.389h174.821c0.472-2.984,0.737-6.011,0.737-9.086
				c0-44.109-49.818-79.867-111.27-79.867c-43.283,0-80.768,17.752-99.164,43.655C160.971,303.3,174.35,320.147,177.717,340.389"/>
			<path clip-path="url(#SVGID_19_)" fill="#FFFFFF" d="M131.473,340.389h46.248c-3.371-20.242-16.749-37.089-34.879-45.298
				c-7.723,10.872-12.106,23.171-12.106,36.212C130.735,334.378,131.001,337.405,131.473,340.389"/>
			<path clip-path="url(#SVGID_19_)" fill="#EAEDF3" d="M290.164,345.467c0-9.089,3.055-17.662,8.438-25.24
				c-5.319-2.408-11.219-3.76-17.438-3.76c-20.994,0-38.409,15.286-41.747,35.333h51.261
				C290.349,349.722,290.164,347.61,290.164,345.467"/>
			<path clip-path="url(#SVGID_19_)" fill="#EAEDF3" d="M322.91,351.8h121.85c0.328-2.08,0.514-4.19,0.514-6.333
				c0-30.744-34.723-55.667-77.555-55.667c-30.168,0-56.295,12.373-69.118,30.427C311.238,325.949,320.562,337.691,322.91,351.8"/>
			<path clip-path="url(#SVGID_19_)" fill="#EAEDF3" d="M290.678,351.8h32.234c-2.35-14.109-11.674-25.851-24.311-31.573
				c-5.383,7.578-8.438,16.15-8.438,25.24C290.164,347.61,290.35,349.721,290.678,351.8"/>
			<path clip-path="url(#SVGID_19_)" fill="#449945" d="M269.938,708.286c0.676,0.813,0.178,1.867-1.057,2.235l-7.954,2.373
				c-4.258,1.27-9.037,1.312-13.315,0.118l-7.896-2.206c-1.229-0.343-1.741-1.378-1.087-2.197"/>
			<path clip-path="url(#SVGID_19_)" fill="#449945" d="M238.629,708.609l13.635-17.08c0.816-1.023,2.882-1.043,3.719-0.036
				l13.955,16.793"/>
			<path clip-path="url(#SVGID_19_)" fill="#3A8440" d="M244.016,701.299l-1.38,2.291l6.004,1.677
				c3.62,1.011,7.664,0.975,11.268-0.1l5.96-1.778l-0.954-1.329c-0.708-0.852-19.779-2.337-20.47-1.471L244.016,701.299z"/>
			<path clip-path="url(#SVGID_19_)" fill="#449945" d="M266.639,702.862l-6.732,2.008c-3.603,1.075-7.647,1.111-11.267,0.1
				l-6.683-1.867c-1.04-0.29-1.473-1.167-0.919-1.859l11.538-14.454c0.691-0.866,2.439-0.883,3.147-0.032l11.81,14.213
				C268.105,701.659,267.684,702.55,266.639,702.862"/>
			<path clip-path="url(#SVGID_19_)" fill="#388E44" d="M269.908,708.289l-8.763-10.556c-0.568-0.684-4.356-0.024-4.91,0.671
				l2.142,12.034c0.079,0.471-0.302,0.745-0.719,0.978c-2.919,1.629-18.615-0.798-17.942-0.61l6.751,1.922
				c0.184,0.051,1.174,0.363,1.362,0.402l3.468,0.595c4.663,0.401,8.14-0.193,11.306-1.33l6.765-2.072c0,0,0.526-0.298,0.715-0.669
				C270.272,709.282,270.314,708.779,269.908,708.289"/>
			<path clip-path="url(#SVGID_19_)" fill="#3A8440" d="M246.085,694.746c0.555-0.695,16.309-0.091,16.878,0.594l0.443,0.665
				l-4.6,1.372c-2.897,0.864-6.147,0.892-9.056,0.08l-4.652-1.299L246.085,694.746z"/>
			<path clip-path="url(#SVGID_19_)" fill="#449945" d="M264.215,695.466l-5.409,1.614c-2.897,0.864-6.147,0.893-9.056,0.08
				l-5.372-1.5c-0.835-0.233-1.183-0.937-0.739-1.495l9.274-11.616c0.555-0.695,1.96-0.709,2.529-0.025l9.491,11.422
				C265.393,694.499,265.055,695.216,264.215,695.466"/>
			<path clip-path="url(#SVGID_19_)" fill="#388E44" d="M264.215,695.466l-5.409,1.614c-2.897,0.864-6.147,0.893-9.056,0.08
				l-5.372-1.5c-0.731-0.205,8.296,0.573,10.848,0.395c0.356-0.025,0.61-0.356,0.547-0.707l-2.383-12.467
				c-0.044-0.245,0.065-0.495,0.28-0.622c0.66-0.391,1.298-0.465,1.772,0.106l9.491,11.581
				C265.393,694.499,265.055,695.216,264.215,695.466"/>
			<path clip-path="url(#SVGID_19_)" fill="#388E44" d="M242.172,703.163l6.191,1.729c0.184,0.052,1.175,0.364,1.362,0.403
				l1.523,0.213c4.139,0.571,6.9-0.058,9.796-0.922l5.595-1.724c0.839-0.251,1.404-1.364,0.944-1.917l-8.762-10.555
				c-0.569-0.686-3.285-0.171-3.84,0.524l2.1,12.228c0.053,0.31-0.192,0.59-0.506,0.577L242.172,703.163z"/>
			<path clip-path="url(#SVGID_19_)" fill="#449945" d="M182.456,661.195c0.676,0.813,0.178,1.867-1.056,2.235l-7.954,2.373
				c-4.259,1.27-9.038,1.313-13.316,0.118l-7.896-2.206c-1.229-0.343-1.741-1.378-1.087-2.198"/>
			<path clip-path="url(#SVGID_19_)" fill="#449945" d="M151.146,661.518l13.635-17.079c0.816-1.023,2.882-1.044,3.719-0.037
				l13.955,16.794"/>
			<path clip-path="url(#SVGID_19_)" fill="#3A8440" d="M156.533,654.208l-1.379,2.291l6.003,1.677
				c3.62,1.011,7.664,0.975,11.268-0.1l5.961-1.778l-0.955-1.329c-0.708-0.852-19.779-2.337-20.47-1.471L156.533,654.208z"/>
			<path clip-path="url(#SVGID_19_)" fill="#449945" d="M179.156,655.771l-6.732,2.008c-3.603,1.075-7.647,1.111-11.267,0.1
				l-6.683-1.867c-1.04-0.29-1.473-1.167-0.919-1.859l11.538-14.454c0.691-0.866,2.439-0.883,3.147-0.032l11.81,14.213
				C180.622,654.568,180.201,655.46,179.156,655.771"/>
			<path clip-path="url(#SVGID_19_)" fill="#388E44" d="M182.425,661.198l-8.763-10.556c-0.568-0.685-4.356-0.024-4.911,0.671
				l2.143,12.034c0.078,0.471-0.302,0.745-0.719,0.978c-2.92,1.629-18.615-0.798-17.942-0.61l6.751,1.922
				c0.184,0.051,1.174,0.363,1.362,0.402l3.468,0.595c4.663,0.401,8.14-0.193,11.306-1.33l6.765-2.072c0,0,0.526-0.298,0.715-0.669
				C182.79,662.191,182.832,661.688,182.425,661.198"/>
			<path clip-path="url(#SVGID_19_)" fill="#3A8440" d="M158.602,647.654c0.555-0.695,16.309-0.091,16.878,0.594l0.443,0.665
				l-4.6,1.372c-2.897,0.864-6.147,0.892-9.056,0.08l-4.652-1.299L158.602,647.654z"/>
			<path clip-path="url(#SVGID_19_)" fill="#449945" d="M176.732,648.375l-5.409,1.614c-2.897,0.864-6.147,0.893-9.056,0.08
				l-5.372-1.5c-0.835-0.233-1.183-0.938-0.739-1.495l9.274-11.616c0.555-0.695,1.96-0.709,2.529-0.025l9.491,11.422
				C177.91,647.408,177.572,648.125,176.732,648.375"/>
			<path clip-path="url(#SVGID_19_)" fill="#388E44" d="M176.732,648.375l-5.409,1.614c-2.897,0.864-6.147,0.893-9.056,0.08
				l-5.372-1.5c-0.731-0.205,8.296,0.573,10.848,0.395c0.356-0.025,0.61-0.355,0.547-0.707l-2.384-12.467
				c-0.043-0.245,0.066-0.495,0.281-0.622c0.66-0.391,1.298-0.465,1.772,0.106l9.491,11.581
				C177.91,647.408,177.572,648.125,176.732,648.375"/>
			<path clip-path="url(#SVGID_19_)" fill="#388E44" d="M154.689,656.072l6.191,1.729c0.185,0.052,1.175,0.364,1.362,0.403
				l1.523,0.213c4.139,0.571,6.9-0.058,9.796-0.922l5.595-1.724c0.839-0.251,1.404-1.364,0.944-1.917l-8.762-10.555
				c-0.569-0.686-3.284-0.171-3.84,0.524l2.1,12.228c0.053,0.31-0.192,0.59-0.506,0.577L154.689,656.072z"/>
			<path clip-path="url(#SVGID_19_)" fill="#449945" d="M264.461,670.541c0.676,0.813,0.178,1.867-1.057,2.235l-7.954,2.373
				c-4.258,1.27-9.037,1.313-13.315,0.118l-7.896-2.206c-1.229-0.343-1.741-1.379-1.087-2.198"/>
			<path clip-path="url(#SVGID_19_)" fill="#449945" d="M233.152,670.863l13.635-17.079c0.816-1.024,2.882-1.044,3.719-0.037
				l13.955,16.794"/>
			<path clip-path="url(#SVGID_19_)" fill="#3A8440" d="M238.538,663.553l-1.38,2.291l6.004,1.677
				c3.62,1.011,7.664,0.975,11.268-0.1l5.96-1.778l-0.954-1.329c-0.708-0.852-19.779-2.337-20.47-1.471L238.538,663.553z"/>
			<path clip-path="url(#SVGID_19_)" fill="#449945" d="M261.162,665.116l-6.732,2.008c-3.603,1.075-7.647,1.111-11.267,0.1
				l-6.683-1.867c-1.04-0.29-1.473-1.167-0.919-1.859l11.538-14.454c0.691-0.866,2.439-0.883,3.147-0.032l11.81,14.212
				C262.627,663.914,262.207,664.805,261.162,665.116"/>
			<path clip-path="url(#SVGID_19_)" fill="#388E44" d="M264.43,670.543l-8.763-10.556c-0.569-0.685-4.356-0.024-4.911,0.671
				l2.143,12.034c0.079,0.471-0.302,0.745-0.719,0.978c-2.919,1.629-18.615-0.798-17.942-0.61l6.751,1.922
				c0.184,0.051,1.174,0.363,1.362,0.402l3.468,0.595c4.663,0.401,8.14-0.193,11.306-1.33l6.765-2.072c0,0,0.526-0.298,0.715-0.669
				C264.795,671.536,264.837,671.033,264.43,670.543"/>
			<path clip-path="url(#SVGID_19_)" fill="#3A8440" d="M240.607,657c0.555-0.695,16.309-0.091,16.878,0.594l0.443,0.665l-4.6,1.372
				c-2.897,0.864-6.147,0.892-9.056,0.08l-4.652-1.299L240.607,657z"/>
			<path clip-path="url(#SVGID_19_)" fill="#449945" d="M258.738,657.72l-5.41,1.614c-2.896,0.864-6.146,0.894-9.055,0.08
				l-5.372-1.5c-0.835-0.233-1.183-0.938-0.739-1.495l9.274-11.616c0.555-0.695,1.96-0.709,2.529-0.024l9.491,11.421
				C259.916,656.753,259.578,657.47,258.738,657.72"/>
			<path clip-path="url(#SVGID_19_)" fill="#388E44" d="M258.738,657.721l-5.41,1.614c-2.896,0.864-6.146,0.893-9.055,0.08
				l-5.372-1.5c-0.731-0.205,8.296,0.573,10.848,0.395c0.356-0.025,0.61-0.355,0.547-0.707l-2.383-12.467
				c-0.044-0.245,0.065-0.495,0.28-0.622c0.66-0.391,1.298-0.465,1.772,0.106l9.491,11.581
				C259.916,656.754,259.578,657.471,258.738,657.721"/>
			<path clip-path="url(#SVGID_19_)" fill="#388E44" d="M236.695,665.417l6.191,1.729c0.185,0.052,1.175,0.364,1.362,0.403
				l1.523,0.213c4.139,0.571,6.9-0.058,9.796-0.922l5.595-1.724c0.839-0.251,1.404-1.364,0.944-1.917l-8.762-10.555
				c-0.569-0.686-3.284-0.171-3.84,0.524l2.1,12.228c0.053,0.31-0.192,0.59-0.506,0.577L236.695,665.417z"/>
			<path clip-path="url(#SVGID_19_)" fill="#449945" d="M193.045,694.74c0.676,0.813,0.178,1.867-1.056,2.235l-7.954,2.373
				c-4.259,1.27-9.038,1.312-13.316,0.118l-7.896-2.206c-1.229-0.343-1.741-1.378-1.087-2.197"/>
			<path clip-path="url(#SVGID_19_)" fill="#449945" d="M161.735,695.063l13.635-17.079c0.816-1.024,2.882-1.044,3.719-0.037
				l13.955,16.793"/>
			<path clip-path="url(#SVGID_19_)" fill="#3A8440" d="M167.122,687.753l-1.379,2.291l6.003,1.677
				c3.62,1.011,7.664,0.975,11.268-0.1l5.961-1.778l-0.955-1.329c-0.708-0.852-19.779-2.337-20.47-1.471L167.122,687.753z"/>
			<path clip-path="url(#SVGID_19_)" fill="#449945" d="M189.746,689.316l-6.732,2.008c-3.603,1.075-7.647,1.111-11.267,0.1
				l-6.683-1.867c-1.04-0.29-1.473-1.167-0.919-1.859l11.538-14.454c0.691-0.866,2.439-0.883,3.147-0.032l11.81,14.212
				C191.211,688.113,190.791,689.004,189.746,689.316"/>
			<path clip-path="url(#SVGID_19_)" fill="#388E44" d="M193.014,694.743l-8.763-10.556c-0.568-0.685-4.356-0.024-4.911,0.671
				l2.143,12.034c0.078,0.471-0.302,0.745-0.719,0.978c-2.92,1.628-18.615-0.798-17.942-0.61l6.751,1.922
				c0.184,0.051,1.174,0.363,1.362,0.402l3.468,0.595c4.663,0.401,8.14-0.193,11.306-1.33l6.765-2.072c0,0,0.526-0.298,0.715-0.669
				C193.379,695.736,193.421,695.233,193.014,694.743"/>
			<path clip-path="url(#SVGID_19_)" fill="#3A8440" d="M169.191,681.2c0.555-0.695,16.309-0.09,16.878,0.594l0.443,0.665
				l-4.6,1.372c-2.897,0.864-6.147,0.892-9.056,0.08l-4.652-1.299L169.191,681.2z"/>
			<path clip-path="url(#SVGID_19_)" fill="#449945" d="M187.321,681.92l-5.409,1.614c-2.897,0.864-6.147,0.893-9.056,0.08
				l-5.372-1.5c-0.835-0.233-1.183-0.938-0.739-1.495l9.274-11.616c0.555-0.695,1.96-0.709,2.529-0.025l9.491,11.422
				C188.5,680.953,188.162,681.67,187.321,681.92"/>
			<path clip-path="url(#SVGID_19_)" fill="#388E44" d="M187.321,681.92l-5.409,1.614c-2.897,0.864-6.147,0.893-9.056,0.08
				l-5.372-1.501c-0.731-0.204,8.296,0.574,10.848,0.396c0.356-0.025,0.61-0.356,0.547-0.707l-2.384-12.467
				c-0.043-0.245,0.066-0.495,0.281-0.622c0.66-0.391,1.298-0.465,1.772,0.106l9.491,11.581
				C188.5,680.952,188.162,681.67,187.321,681.92"/>
			<path clip-path="url(#SVGID_19_)" fill="#388E44" d="M165.279,689.617l6.191,1.729c0.185,0.052,1.175,0.364,1.362,0.403
				l1.523,0.213c4.139,0.571,6.9-0.058,9.796-0.922l5.595-1.724c0.839-0.251,1.404-1.364,0.944-1.917l-8.762-10.555
				c-0.569-0.686-3.284-0.171-3.84,0.524l2.1,12.228c0.053,0.31-0.192,0.59-0.506,0.577L165.279,689.617z"/>
			<path clip-path="url(#SVGID_19_)" fill="#449945" d="M202.524,705.295c0.519,0.624,0.136,1.433-0.811,1.716l-6.106,1.821
				c-3.268,0.975-6.937,1.008-10.221,0.091l-6.061-1.694c-0.944-0.263-1.336-1.058-0.835-1.687"/>
			<path clip-path="url(#SVGID_19_)" fill="#449945" d="M178.49,705.542l10.466-13.11c0.627-0.786,2.213-0.801,2.855-0.029
				l10.713,12.892"/>
			<path clip-path="url(#SVGID_19_)" fill="#3A8440" d="M182.625,699.931l-1.059,1.758l4.609,1.288
				c2.778,0.776,5.883,0.748,8.649-0.077l4.575-1.365l-0.733-1.02c-0.543-0.654-15.182-1.794-15.712-1.129L182.625,699.931z"/>
			<path clip-path="url(#SVGID_19_)" fill="#449945" d="M199.991,701.131l-5.167,1.541c-2.766,0.826-5.871,0.853-8.649,0.077
				l-5.13-1.433c-0.798-0.223-1.131-0.895-0.706-1.427l8.857-11.095c0.53-0.665,1.872-0.678,2.416-0.024l9.065,10.909
				C201.116,700.207,200.793,700.892,199.991,701.131"/>
			<path clip-path="url(#SVGID_19_)" fill="#388E44" d="M202.5,705.297l-6.726-8.103c-0.437-0.526-3.344-0.019-3.77,0.515
				l1.645,9.237c0.06,0.362-0.232,0.572-0.553,0.751c-2.24,1.25-14.288-0.612-13.772-0.468l5.182,1.476
				c0.142,0.04,0.902,0.279,1.046,0.309l2.662,0.457c3.579,0.308,6.249-0.148,8.678-1.022l5.193-1.59c0,0,0.404-0.228,0.55-0.513
				C202.78,706.059,202.812,705.673,202.5,705.297"/>
			<path clip-path="url(#SVGID_19_)" fill="#3A8440" d="M184.213,694.9c0.426-0.534,12.519-0.069,12.956,0.456l0.34,0.51
				l-3.531,1.054c-2.224,0.663-4.719,0.685-6.952,0.061l-3.571-0.997L184.213,694.9z"/>
			<path clip-path="url(#SVGID_19_)" fill="#449945" d="M198.13,695.454l-4.152,1.239c-2.224,0.663-4.719,0.685-6.952,0.061
				l-4.123-1.151c-0.641-0.179-0.908-0.72-0.567-1.148l7.118-8.916c0.426-0.534,1.505-0.544,1.942-0.019l7.285,8.767
				C199.035,694.711,198.774,695.262,198.13,695.454"/>
			<path clip-path="url(#SVGID_19_)" fill="#388E44" d="M198.13,695.454l-4.152,1.239c-2.224,0.663-4.719,0.685-6.952,0.061
				l-4.123-1.151c-0.561-0.157,6.368,0.44,8.327,0.303c0.273-0.019,0.468-0.273,0.42-0.543l-1.83-9.57
				c-0.033-0.188,0.051-0.38,0.215-0.477c0.507-0.3,0.997-0.357,1.361,0.081l7.285,8.89
				C199.035,694.711,198.774,695.262,198.13,695.454"/>
			<path clip-path="url(#SVGID_19_)" fill="#388E44" d="M181.21,701.362l4.752,1.328c0.142,0.039,0.902,0.279,1.046,0.309
				l1.169,0.163c3.177,0.439,5.297-0.044,7.519-0.707l4.295-1.324c0.644-0.193,1.078-1.047,0.725-1.471l-6.726-8.103
				c-0.437-0.526-2.521-0.131-2.948,0.403l1.612,9.386c0.041,0.238-0.147,0.453-0.388,0.443L181.21,701.362z"/>
			<path clip-path="url(#SVGID_19_)" fill="#449945" d="M233,687.644c0.676,0.813,0.178,1.867-1.057,2.235l-7.954,2.373
				c-4.258,1.27-9.037,1.313-13.315,0.118l-7.896-2.206c-1.229-0.343-1.741-1.378-1.087-2.198"/>
			<path clip-path="url(#SVGID_19_)" fill="#449945" d="M201.691,687.966l13.635-17.079c0.816-1.024,2.882-1.044,3.719-0.037
				L233,687.644"/>
			<path clip-path="url(#SVGID_19_)" fill="#3A8440" d="M207.077,680.656l-1.38,2.291l6.004,1.677
				c3.62,1.011,7.664,0.975,11.268-0.1l5.96-1.778l-0.954-1.329c-0.708-0.852-19.779-2.337-20.47-1.471L207.077,680.656z"/>
			<path clip-path="url(#SVGID_19_)" fill="#449945" d="M229.701,682.219l-6.732,2.008c-3.603,1.075-7.647,1.111-11.267,0.1
				l-6.683-1.867c-1.04-0.29-1.473-1.167-0.919-1.859l11.538-14.454c0.691-0.866,2.439-0.883,3.147-0.032l11.81,14.212
				C231.167,681.016,230.746,681.907,229.701,682.219"/>
			<path clip-path="url(#SVGID_19_)" fill="#388E44" d="M232.969,687.646l-8.763-10.556c-0.568-0.685-4.356-0.024-4.911,0.671
				l2.143,12.034c0.079,0.471-0.302,0.745-0.719,0.978c-2.919,1.628-18.615-0.798-17.942-0.61l6.751,1.922
				c0.184,0.051,1.174,0.363,1.362,0.402l3.468,0.595c4.663,0.401,8.14-0.193,11.306-1.33l6.765-2.072c0,0,0.526-0.298,0.715-0.669
				C233.334,688.639,233.376,688.136,232.969,687.646"/>
			<path clip-path="url(#SVGID_19_)" fill="#3A8440" d="M209.146,674.103c0.555-0.695,16.309-0.091,16.878,0.594l0.443,0.665
				l-4.6,1.372c-2.897,0.864-6.147,0.892-9.056,0.08l-4.652-1.299L209.146,674.103z"/>
			<path clip-path="url(#SVGID_19_)" fill="#449945" d="M227.277,674.823l-5.41,1.614c-2.896,0.864-6.146,0.893-9.055,0.08
				l-5.372-1.5c-0.835-0.233-1.183-0.938-0.739-1.495l9.274-11.616c0.555-0.695,1.96-0.709,2.529-0.025l9.491,11.422
				C228.455,673.856,228.117,674.573,227.277,674.823"/>
			<path clip-path="url(#SVGID_19_)" fill="#388E44" d="M227.277,674.823l-5.41,1.614c-2.896,0.864-6.146,0.893-9.055,0.08
				l-5.372-1.501c-0.731-0.204,8.296,0.574,10.848,0.396c0.356-0.025,0.61-0.356,0.547-0.707l-2.383-12.467
				c-0.044-0.245,0.065-0.495,0.28-0.622c0.66-0.391,1.298-0.465,1.772,0.106l9.491,11.581
				C228.455,673.855,228.117,674.573,227.277,674.823"/>
			<path clip-path="url(#SVGID_19_)" fill="#388E44" d="M205.234,682.52l6.191,1.729c0.185,0.052,1.175,0.364,1.362,0.403
				l1.523,0.213c4.139,0.571,6.9-0.058,9.796-0.922l5.595-1.724c0.839-0.251,1.404-1.364,0.944-1.917l-8.762-10.555
				c-0.569-0.686-3.284-0.171-3.84,0.524l2.1,12.228c0.053,0.31-0.192,0.59-0.506,0.577L205.234,682.52z"/>
			<path clip-path="url(#SVGID_19_)" fill="#449945" d="M221.274,744.103c0.552,0.664,0.145,1.525-0.863,1.826l-6.497,1.938
				c-3.478,1.038-7.382,1.072-10.876,0.096l-6.45-1.802c-1.004-0.28-1.421-1.125-0.888-1.794"/>
			<path clip-path="url(#SVGID_19_)" fill="#449945" d="M195.701,744.366l11.137-13.951c0.667-0.835,2.354-0.852,3.038-0.03
				l11.399,13.717"/>
			<path clip-path="url(#SVGID_19_)" fill="#3A8440" d="M200.1,738.396l-1.127,1.871l4.904,1.37c2.957,0.826,6.26,0.797,9.203-0.082
				l4.869-1.452l-0.78-1.085c-0.578-0.696-16.155-1.909-16.719-1.202L200.1,738.396z"/>
			<path clip-path="url(#SVGID_19_)" fill="#449945" d="M218.579,739.672l-5.498,1.64c-2.943,0.878-6.247,0.907-9.204,0.081
				l-5.458-1.524c-0.85-0.237-1.203-0.953-0.751-1.519l9.424-11.806c0.565-0.707,1.993-0.721,2.571-0.026l9.646,11.609
				C219.776,738.689,219.432,739.417,218.579,739.672"/>
			<path clip-path="url(#SVGID_19_)" fill="#388E44" d="M221.249,744.105l-7.157-8.622c-0.465-0.559-3.558-0.02-4.012,0.548
				l1.751,9.83c0.064,0.384-0.247,0.608-0.588,0.798c-2.385,1.331-15.204-0.651-14.655-0.498l5.514,1.57
				c0.151,0.042,0.96,0.297,1.113,0.328l2.833,0.486c3.808,0.328,6.649-0.157,9.234-1.086l5.526-1.693c0,0,0.429-0.242,0.584-0.546
				C221.547,744.917,221.581,744.505,221.249,744.105"/>
			<path clip-path="url(#SVGID_19_)" fill="#3A8440" d="M201.791,733.043c0.454-0.568,13.321-0.074,13.786,0.485l0.362,0.543
				l-3.758,1.121c-2.366,0.706-5.02,0.729-7.397,0.065l-3.8-1.061L201.791,733.043z"/>
			<path clip-path="url(#SVGID_19_)" fill="#449945" d="M216.599,733.631l-4.418,1.318c-2.366,0.706-5.021,0.729-7.397,0.066
				l-4.387-1.226c-0.683-0.19-0.967-0.766-0.604-1.221l7.574-9.487c0.454-0.569,1.601-0.58,2.066-0.021l7.753,9.33
				C217.561,732.841,217.285,733.427,216.599,733.631"/>
			<path clip-path="url(#SVGID_19_)" fill="#388E44" d="M216.599,733.632l-4.418,1.318c-2.366,0.706-5.021,0.729-7.397,0.066
				l-4.387-1.226c-0.598-0.167,6.776,0.469,8.86,0.323c0.291-0.02,0.498-0.29,0.447-0.577l-1.947-10.184
				c-0.036-0.2,0.053-0.404,0.229-0.508c0.539-0.319,1.06-0.379,1.447,0.087l7.753,9.459
				C217.561,732.842,217.285,733.428,216.599,733.632"/>
			<path clip-path="url(#SVGID_19_)" fill="#388E44" d="M198.595,739.918l5.057,1.413c0.15,0.041,0.959,0.297,1.113,0.328
				l1.243,0.175c3.381,0.466,5.636-0.048,8.002-0.753l4.57-1.409c0.685-0.205,1.146-1.113,0.77-1.565l-7.157-8.622
				c-0.464-0.56-2.682-0.14-3.136,0.428l1.715,9.988c0.044,0.253-0.157,0.482-0.413,0.471L198.595,739.918z"/>
			<path clip-path="url(#SVGID_19_)" fill="#F7E496" d="M439.668,125.983c0-35.124,28.473-63.597,63.597-63.597
				c33.915,0,61.621,26.549,63.488,59.997c0.069-1.304,0.108-2.616,0.108-3.938c0-40.527-32.855-73.382-73.385-73.382
				c-40.527,0-73.382,32.855-73.382,73.382c0,40.529,32.854,73.384,73.382,73.384c7.84,0,15.387-1.242,22.469-3.518
				c-4.098,0.829-8.338,1.268-12.681,1.268C468.141,189.581,439.668,161.107,439.668,125.983"/>
			<path clip-path="url(#SVGID_19_)" fill="#F9EAC0" d="M511.884,177.25l-21.519-18.885c-2.529-2.174-2.82-6.022-0.646-8.552
				c0.888-1.033,2.056-1.685,3.298-1.956c1.8-0.393,3.757,0.024,5.254,1.311l17.701,15.604l17.809,14.991
				c1.721-1.134,3.387-2.34,5-3.61c-0.019-0.017-0.041-0.027-0.061-0.044l-6.756-5.831l-6.01-5.187l-13.004-11.222l-19.977-17.703
				l-3.001-2.591c-2.524-2.178-2.808-6.028-0.629-8.553c0.968-1.121,2.267-1.798,3.63-2.015c1.709-0.273,3.521,0.175,4.924,1.387
				l33.617,29.475l0.449,0.387l12.553,10.835l2.127,1.836c0.371,0.321,0.689,0.679,0.961,1.062c1.342-1.464,2.613-2.992,3.833-4.562
				l-1.636-1.479l-14.432-13.056l-2.068-1.871l-18.124-16.397l-19.713-18.494c-2.473-2.238-2.666-6.093-0.428-8.566
				c2.237-2.474,6.092-2.667,8.565-0.429l29.655,27.489l0.044,0.04l16.5,14.928l3.648,3.3l4.697,4.251
				c0.867-1.611,1.662-3.264,2.408-4.944c-0.289-0.174-0.572-0.368-0.837-0.597l-9.982-8.66l-9.39-8.146l-9.209-7.866
				c-2.52-2.186-2.793-6.036-0.607-8.555c2.186-2.52,6.036-2.793,8.557-0.607l22.549,19.438l3.116,2.704
				c1.067-4.37,1.755-8.888,2-13.526c-1.867-33.448-29.573-59.997-63.488-59.997c-35.124,0-63.597,28.473-63.597,63.597
				s28.473,63.597,63.597,63.597c4.343,0,8.583-0.439,12.681-1.268c2.153-0.692,4.266-1.474,6.328-2.354L511.884,177.25z"/>
			<path clip-path="url(#SVGID_19_)" fill="#F4DC9A" d="M549.803,145.591l-16.5-14.928l-0.044-0.04l-29.655-27.489
				c-2.474-2.237-6.328-2.044-8.565,0.43c-2.238,2.472-2.044,6.327,0.428,8.566l19.713,18.493l18.124,16.397l2.068,1.871
				l14.432,13.056l1.636,1.479c2.508-3.228,4.762-6.66,6.71-10.284l-4.698-4.251L549.803,145.591z"/>
			<path clip-path="url(#SVGID_19_)" fill="#F4DC9A" d="M546.645,166.927l-2.127-1.836l-12.553-10.835l-0.449-0.388l-33.617-29.475
				c-1.402-1.211-3.215-1.659-4.924-1.386c-1.363,0.217-2.662,0.894-3.63,2.015c-2.179,2.525-1.896,6.374,0.629,8.553l3.001,2.59
				l19.977,17.703l13.004,11.223l6.01,5.187l6.756,5.831c0.02,0.017,0.042,0.027,0.062,0.044c3.157-2.482,6.114-5.206,8.823-8.164
				C547.334,167.606,547.016,167.247,546.645,166.927"/>
			<path clip-path="url(#SVGID_19_)" fill="#F4DC9A" d="M498.271,149.168c-1.497-1.286-3.454-1.703-5.254-1.31
				c-1.242,0.27-2.41,0.923-3.298,1.956c-2.175,2.53-1.884,6.378,0.646,8.552l21.519,18.885l10.39,8.708
				c4.037-1.725,7.882-3.808,11.508-6.197l-17.809-14.99L498.271,149.168z"/>
			<path clip-path="url(#SVGID_19_)" fill="#F4DC9A" d="M539.088,113.767c-2.521-2.186-6.371-1.913-8.556,0.607
				c-2.187,2.52-1.913,6.369,0.606,8.555l9.209,7.866l9.39,8.146l9.982,8.66c0.265,0.229,0.548,0.423,0.837,0.598
				c1.745-3.929,3.157-8.035,4.196-12.289l-3.116-2.705L539.088,113.767z"/>
			<polygon clip-path="url(#SVGID_19_)" fill="#E8E6BF" points="569.85,981.227 386.237,959.341 386.237,862.682 569.85,884.567 			
				"/>
			<path clip-path="url(#SVGID_19_)" fill="#AA3D4D" d="M403.344,1149.455L403.344,1149.455c-3.599,0-6.518-2.918-6.518-6.518
				V933.119c0-3.6,2.919-6.518,6.518-6.518c3.601,0,6.519,2.918,6.519,6.518v209.818
				C409.862,1146.537,406.944,1149.455,403.344,1149.455"/>
			<path clip-path="url(#SVGID_19_)" fill="#922741" d="M402.667,1149.421c-0.131-0.011-0.262-0.033-0.39-0.06l-0.613-0.124
				c0.574-0.266,2.471-4.123,2.471-5.472V932.828c0-1.348,1.281-2.439,2.864-2.439c1.581,0,2.863,1.092,2.863,2.439v210.401
				c-0.052,1.002-0.344,2.034-0.821,2.877c-0.369,0.653-0.82,1.306-1.776,2.039C406.218,1148.947,404.648,1149.603,402.667,1149.421
				"/>
			<path clip-path="url(#SVGID_19_)" fill="#AA3D4D" d="M541.587,1175.96L541.587,1175.96c-3.6,0-6.518-2.919-6.518-6.517v-209.82
				c0-3.6,2.918-6.518,6.518-6.518c3.601,0,6.519,2.918,6.519,6.518v209.82C548.105,1173.041,545.188,1175.96,541.587,1175.96"/>
			<path clip-path="url(#SVGID_19_)" fill="#922741" d="M540.91,1175.926c-0.13-0.013-0.262-0.033-0.391-0.062l-0.612-0.124
				c0.574-0.264,2.47-4.121,2.47-5.47V959.332c0-1.348,1.282-2.439,2.865-2.439c1.581,0,2.863,1.092,2.863,2.439v210.401
				c-0.052,1.003-0.343,2.035-0.821,2.878c-0.37,0.651-0.819,1.305-1.776,2.037C544.46,1175.45,542.891,1176.106,540.91,1175.926"/>
			<path clip-path="url(#SVGID_19_)" fill="#AA3D4D" d="M380.142,980.236L380.142,980.236c-1.762,0-3.191-1.43-3.191-3.192V874.305
				c0-1.763,1.43-3.191,3.191-3.191c1.763,0,3.193,1.428,3.193,3.191v102.739C383.335,978.807,381.904,980.236,380.142,980.236"/>
			<path clip-path="url(#SVGID_19_)" fill="#AA3D4D" d="M556.271,997.741L556.271,997.741c-0.212,1.75-1.802,2.998-3.551,2.786
				l-163.507-19.765c-1.749-0.212-2.996-1.802-2.784-3.552c0.211-1.75,1.801-2.996,3.551-2.785l163.505,19.765
				C555.234,994.402,556.482,995.991,556.271,997.741"/>
			<path clip-path="url(#SVGID_19_)" fill="#AA3D4D" d="M383.89,865.638L383.89,865.638c0.188-1.752,1.713-3.015,3.407-2.821
				l168.785,19.351c1.693,0.194,2.914,1.771,2.728,3.523c-0.188,1.752-1.713,3.015-3.406,2.821L386.616,869.16
				C384.923,868.967,383.702,867.39,383.89,865.638"/>
			<path clip-path="url(#SVGID_19_)" fill="#922741" d="M561.518,939.646L561.518,939.646c-0.449,0.402-1.139,0.365-1.541-0.085
				l-50.552-56.39c-0.401-0.448-0.364-1.139,0.084-1.541s1.14-0.364,1.541,0.084l50.552,56.39
				C562.004,938.553,561.967,939.244,561.518,939.646"/>
			<path clip-path="url(#SVGID_19_)" fill="#922741" d="M384.396,867.769L384.396,867.769c0,0-0.392-0.541-0.49-1.301
				c-0.034-0.266,0.703,0.657,1.446,0.727l170.323,18.86c3.046,0.279,3.182-0.825,3.134-0.364c-0.089,0.879-0.452,1.326-0.717,1.718
				c-0.539,0.643-1.446,1.219-2.688,1.103L386.615,869.16C385.104,868.986,384.396,867.769,384.396,867.769"/>
			<path clip-path="url(#SVGID_19_)" fill="#922741" d="M563.125,939.857l0.079,0.098c0.383,0.466,0.312,1.153-0.153,1.535
				l-59.261,48.377c-0.467,0.382-1.153,0.312-1.534-0.153l-0.079-0.1c-0.382-0.467-0.312-1.153,0.153-1.534l59.26-48.378
				C562.057,939.321,562.744,939.391,563.125,939.857"/>
			<path clip-path="url(#SVGID_19_)" fill="#AA3D4D" d="M563.45,1002.703L563.45,1002.703c-1.763,0-3.191-1.429-3.191-3.191v-105.77
				c0-1.763,1.429-3.192,3.191-3.192c1.764,0,3.192,1.429,3.192,3.192v105.77C566.643,1001.274,565.214,1002.703,563.45,1002.703"/>
			<path clip-path="url(#SVGID_19_)" fill="#922741" d="M427.711,980.411L427.711,980.411c-0.449,0.402-1.14,0.364-1.541-0.085
				l-44.909-50.096c-0.403-0.449-0.365-1.139,0.083-1.541c0.45-0.402,1.139-0.365,1.542,0.085l44.909,50.096
				C428.196,979.318,428.161,980.01,427.711,980.411"/>
			<path clip-path="url(#SVGID_19_)" fill="#922741" d="M387.039,979.502l-0.127-0.183c0,0-0.409-0.601-0.495-1.441
				c-0.026-0.266,0.596,0.819,1.56,0.93l165.993,19.105c1.848,0.18,2.388-0.854,2.312-0.283c-0.008,0.063-0.029,0.26-0.052,0.363
				c-0.188,0.864-0.548,1.212-0.6,1.312l-0.277,0.315c-0.561,0.543-1.392,1.021-2.635,0.906l-163.477-19.754
				C387.731,980.599,387.039,979.502,387.039,979.502"/>
			<path clip-path="url(#SVGID_19_)" fill="#922741" d="M439.571,873.744l0.083,0.093c0.403,0.45,0.366,1.139-0.083,1.542
				l-56.962,51.063c-0.448,0.402-1.139,0.365-1.541-0.085l-0.084-0.093c-0.402-0.448-0.364-1.139,0.085-1.54l56.961-51.064
				C438.479,873.258,439.17,873.295,439.571,873.744"/>
			<polygon clip-path="url(#SVGID_19_)" fill="#E5E3A4" points="558.599,990.691 384.548,970.636 384.548,872.658 558.599,892.713 
							"/>
			<path clip-path="url(#SVGID_19_)" fill="#922741" d="M563.245,1002.696l-0.119-0.01c0.247-0.133,1.06-2.171,1.06-2.849V893.664
				c0-0.678,0.551-1.228,1.229-1.228s1.229,0.55,1.229,1.228v105.905c-0.023,0.503-0.104,0.901-0.361,1.419
				C566.008,1001.536,565.06,1002.788,563.245,1002.696"/>
			<path clip-path="url(#SVGID_19_)" fill="#922741" d="M379.714,980.209l-0.396-0.081c0.282-0.129,1.21-2.018,1.21-2.678
				l-0.001-103.287c0-0.661,0.63-1.195,1.403-1.195c0.775,0,1.402,0.534,1.402,1.195v103.024c-0.025,0.49-0.167,0.995-0.402,1.409
				c-0.181,0.318-0.401,0.639-0.87,0.997C381.532,980,380.729,980.329,379.714,980.209"/>
			<polygon clip-path="url(#SVGID_19_)" fill="#AA3D4D" points="561.69,1006.595 377.776,984.101 357.229,995.222 543.782,1018.094 
							"/>
			<polygon clip-path="url(#SVGID_19_)" fill="#DBD8A1" points="397.266,874.123 497.453,983.646 558.599,990.691 558.599,892.714 
							"/>
			<g clip-path="url(#SVGID_19_)">
				<defs>
					<rect id="SVGID_42_" x="357.229" y="987.476" width="204.462" height="33.995"/>
				</defs>
				<clipPath id="SVGID_43_">
					<use xlink:href="#SVGID_42_"  overflow="visible"/>
				</clipPath>
				<g clip-path="url(#SVGID_43_)">
					<defs>
						<rect id="SVGID_44_" x="357.229" y="987.476" width="204.463" height="33.995"/>
					</defs>
					<clipPath id="SVGID_45_">
						<use xlink:href="#SVGID_44_"  overflow="visible"/>
					</clipPath>
					<polygon clip-path="url(#SVGID_45_)" fill="#AA3D4D" points="561.69,1009.971 377.776,987.477 357.229,998.6 543.782,1021.471 
											"/>
				</g>
			</g>
			<g clip-path="url(#SVGID_19_)">
				<defs>
					<rect id="SVGID_46_" x="468.737" y="1003.922" width="92.953" height="17.549"/>
				</defs>
				<clipPath id="SVGID_47_">
					<use xlink:href="#SVGID_46_"  overflow="visible"/>
				</clipPath>
				<g clip-path="url(#SVGID_47_)">
					<defs>
						<rect id="SVGID_48_" x="468.737" y="1003.922" width="92.953" height="17.549"/>
					</defs>
					<clipPath id="SVGID_49_">
						<use xlink:href="#SVGID_48_"  overflow="visible"/>
					</clipPath>
					<polygon clip-path="url(#SVGID_49_)" fill="#922741" points="516.74,1004.473 561.69,1009.972 543.782,1021.472 
						468.737,1012.27 512.227,1003.922 					"/>
				</g>
			</g>
			<polygon clip-path="url(#SVGID_19_)" fill="#922741" points="516.74,1001.097 561.69,1006.595 543.782,1018.094 
				468.737,1008.893 512.227,1000.544 			"/>
			<polygon clip-path="url(#SVGID_19_)" fill="#943447" points="357.229,995.222 357.229,998.599 543.781,1021.471 
				543.781,1018.094 			"/>
			<polygon clip-path="url(#SVGID_19_)" fill="#922741" points="561.69,1006.595 561.69,1009.972 543.782,1021.47 543.782,1018.094 
							"/>
		</g>
		<g id="Grass5" clip-path="url(#SVGID_5_)">
			<defs>
				<rect id="SVGID_50_" y="1365.146" width="612" height="440.903"/>
			</defs>
			<clipPath id="SVGID_51_">
				<use xlink:href="#SVGID_50_"  overflow="visible"/>
			</clipPath>
			
				<linearGradient id="SVGID_52_" gradientUnits="userSpaceOnUse" x1="0" y1="1806.0498" x2="1" y2="1806.0498" gradientTransform="matrix(10.4995 845.9577 845.9577 -10.4995 -1527541.25 19982.625)">
				<stop  offset="0" style="stop-color:#8CC63F"/>
				<stop  offset="1" style="stop-color:#009445"/>
			</linearGradient>
			<polygon clip-path="url(#SVGID_51_)" fill="url(#SVGID_52_)" points="611.905,1357.552 617.472,1805.981 0.094,1813.645 
				-5.471,1365.215 			"/>
		</g>
		<g id="Mountains" clip-path="url(#SVGID_5_)">
			<defs>
				<rect id="SVGID_53_" y="0.002" width="612" height="1806.048"/>
			</defs>
			<clipPath id="SVGID_54_">
				<use xlink:href="#SVGID_53_"  overflow="visible"/>
			</clipPath>
			<path clip-path="url(#SVGID_54_)" fill="#878E88" d="M32.042,1160.975l119.223-101.179l97.244,57.826l80.42-52.797L430,1145.309
				l87.82-50.301l83.386,51.14v176.898l-617.656-15.931c0,0,8.612-248.157,8.612-247.319
				C-7.838,1060.635,32.042,1160.975,32.042,1160.975"/>
			<g clip-path="url(#SVGID_54_)">
				<defs>
					<rect id="SVGID_55_" x="447.604" y="1152.008" width="330.774" height="226.783"/>
				</defs>
				<clipPath id="SVGID_56_">
					<use xlink:href="#SVGID_55_"  overflow="visible"/>
				</clipPath>
				<g clip-path="url(#SVGID_56_)">
					<defs>
						<rect id="SVGID_57_" x="447.605" y="1152.008" width="330.771" height="226.783"/>
					</defs>
					<clipPath id="SVGID_58_">
						<use xlink:href="#SVGID_57_"  overflow="visible"/>
					</clipPath>
					<polygon clip-path="url(#SVGID_58_)" fill="#567C5B" points="737.277,1286.866 704.952,1215.626 666.482,1253.68 
						632.655,1187.989 595.511,1224.02 563.627,1152.008 498.675,1267.609 447.604,1376.813 778.378,1378.791 					"/>
				</g>
			</g>
			<g clip-path="url(#SVGID_54_)">
				<defs>
					<rect id="SVGID_59_" x="374.861" y="1118.867" width="375.867" height="260.141"/>
				</defs>
				<clipPath id="SVGID_60_">
					<use xlink:href="#SVGID_59_"  overflow="visible"/>
				</clipPath>
				<g clip-path="url(#SVGID_60_)">
					<defs>
						<rect id="SVGID_61_" x="374.863" y="1118.867" width="375.865" height="260.141"/>
					</defs>
					<clipPath id="SVGID_62_">
						<use xlink:href="#SVGID_61_"  overflow="visible"/>
					</clipPath>
					<polygon clip-path="url(#SVGID_62_)" fill="#454F47" points="704.027,1273.564 667.295,1191.846 623.579,1235.496 
						585.141,1160.142 542.935,1201.473 506.701,1118.87 432.895,1251.475 374.861,1376.742 750.729,1379.008 					"/>
				</g>
			</g>
			<g clip-path="url(#SVGID_54_)">
				<defs>
					<rect id="SVGID_63_" x="-21.522" y="1114.303" width="375.867" height="260.139"/>
				</defs>
				<clipPath id="SVGID_64_">
					<use xlink:href="#SVGID_63_"  overflow="visible"/>
				</clipPath>
				<g clip-path="url(#SVGID_64_)">
					<defs>
						<rect id="SVGID_65_" x="-21.522" y="1114.303" width="375.868" height="260.139"/>
					</defs>
					<clipPath id="SVGID_66_">
						<use xlink:href="#SVGID_65_"  overflow="visible"/>
					</clipPath>
					<polygon clip-path="url(#SVGID_66_)" fill="#454F47" points="307.643,1268.997 270.909,1187.278 227.195,1230.931 
						188.757,1155.573 146.55,1196.906 110.318,1114.303 36.511,1246.907 -21.521,1372.175 354.346,1374.441 					"/>
				</g>
			</g>
			<g clip-path="url(#SVGID_54_)">
				<defs>
					<rect id="SVGID_67_" x="-90.191" y="1146.957" width="330.774" height="226.783"/>
				</defs>
				<clipPath id="SVGID_68_">
					<use xlink:href="#SVGID_67_"  overflow="visible"/>
				</clipPath>
				<g clip-path="url(#SVGID_68_)">
					<defs>
						<rect id="SVGID_69_" x="-90.191" y="1146.957" width="330.773" height="226.783"/>
					</defs>
					<clipPath id="SVGID_70_">
						<use xlink:href="#SVGID_69_"  overflow="visible"/>
					</clipPath>
					<polygon clip-path="url(#SVGID_70_)" fill="#567C5B" points="199.482,1281.815 167.156,1210.575 128.687,1248.63 
						94.86,1182.937 57.717,1218.967 25.832,1146.957 -39.12,1262.559 -90.191,1371.763 240.582,1373.738 					"/>
				</g>
			</g>
			<polygon clip-path="url(#SVGID_54_)" fill="#BABABA" points="231.039,1193.787 168.692,1134.744 76.234,1288.377 
				38.692,1266.765 10.423,1307.417 10.423,1372.833 437.979,1372.833 304.496,1134.744 			"/>
			<polygon clip-path="url(#SVGID_54_)" fill="#6FA1A5" points="333.572,1163.28 327.225,1150.841 280.226,1210.934 
				273.601,1205.305 219.445,1264.26 212.812,1259.615 130.556,1373.541 598.091,1378.168 598.091,1243.656 581.588,1217.167 
				553.73,1249.003 509.955,1188.201 496.689,1205.229 414.111,1069.464 			"/>
			<polygon clip-path="url(#SVGID_54_)" fill="#68A085" points="333.572,1163.28 327.225,1150.841 280.226,1210.934 
				273.601,1205.305 219.445,1264.26 212.812,1259.615 130.556,1373.541 598.091,1378.168 598.091,1243.656 581.588,1217.167 
				553.73,1249.003 509.955,1188.201 496.689,1205.229 414.111,1069.464 			"/>
			<polygon clip-path="url(#SVGID_54_)" fill="#505756" points="397.2,1122.983 419.752,1115.688 406.479,1156.146 
				427.048,1201.248 446.945,1188.201 438.984,1224.233 450.925,1228.442 397.2,1343.188 461.537,1304.72 482.761,1377.027 
				598.089,1378.171 598.089,1243.656 581.588,1217.167 553.73,1249.005 509.955,1188.201 496.689,1205.229 414.109,1069.46 			"/>
			<polygon clip-path="url(#SVGID_54_)" fill="#5C7F7F" points="226.097,1257.018 226.097,1278.629 219.445,1264.259 			"/>
			<polygon clip-path="url(#SVGID_54_)" fill="#5C7F7F" points="286.686,1203.543 283.56,1216.725 280.227,1210.935 			"/>
			<polygon clip-path="url(#SVGID_54_)" fill="#5C7F7F" points="342.319,1173.839 333.572,1163.28 340.929,1154.852 			"/>
			<polygon clip-path="url(#SVGID_54_)" fill="#8EBBBD" points="321.256,1240.05 339.164,1224.233 346.791,1240.05 337.945,1229.77 
							"/>
			<polygon clip-path="url(#SVGID_54_)" fill="#8EBBBD" points="289.659,1308.099 287.814,1296.109 278.542,1309.435 
				286.012,1303.408 			"/>
			<path clip-path="url(#SVGID_54_)" fill="#4A4C4B" d="M406.479,1248.827c0,17.903-8.126,16.366-21.854,16.366
				c-13.724,0-24.852,1.853-24.852-16.051s11.128-32.418,24.852-32.418C398.354,1216.725,406.479,1230.924,406.479,1248.827"/>
			<path clip-path="url(#SVGID_54_)" fill="#4C8A3F" d="M186.512,765.093c0,0-21.907,0.592-33.2-9.543
				c-11.292-10.135,20.34-11.835,20.34-11.835S180.861,746.364,186.512,765.093"/>
			<polygon clip-path="url(#SVGID_54_)" fill="#D3844E" points="162.228,745.452 162.228,750.27 165.066,750.27 167.903,750.27 
				167.903,745.633 			"/>
			<path clip-path="url(#SVGID_54_)" fill="#449945" d="M184.1,739.071c0.793,0.954,0.209,2.191-1.24,2.622l-9.332,2.785
				c-4.997,1.49-10.604,1.54-15.623,0.138l-9.265-2.589c-1.442-0.402-2.042-1.617-1.276-2.578"/>
			<path clip-path="url(#SVGID_54_)" fill="#449945" d="M147.364,739.449l15.998-20.04c0.958-1.2,3.382-1.224,4.364-0.043
				l16.374,19.705"/>
			<path clip-path="url(#SVGID_54_)" fill="#3A8440" d="M153.685,730.873l-1.619,2.688l7.045,1.967
				c4.247,1.188,8.992,1.146,13.22-0.117l6.994-2.086l-1.121-1.559c-0.83-0.999-23.206-2.742-24.017-1.726L153.685,730.873z"/>
			<path clip-path="url(#SVGID_54_)" fill="#449945" d="M180.229,732.707l-7.898,2.356c-4.228,1.261-8.973,1.303-13.221,0.117
				l-7.841-2.19c-1.22-0.341-1.728-1.369-1.078-2.182l13.537-16.959c0.812-1.016,2.863-1.036,3.693-0.036l13.857,16.675
				C181.949,731.294,181.455,732.341,180.229,732.707"/>
			<path clip-path="url(#SVGID_54_)" fill="#388E44" d="M184.064,739.074l-10.281-12.385c-0.668-0.804-5.111-0.029-5.762,0.787
				l2.514,14.119c0.092,0.553-0.355,0.874-0.844,1.148c-3.426,1.911-21.841-0.936-21.051-0.716l7.92,2.255
				c0.216,0.061,1.378,0.427,1.598,0.472l4.07,0.698c5.47,0.471,9.551-0.226,13.265-1.561l7.937-2.431c0,0,0.617-0.349,0.84-0.785
				C184.492,740.239,184.541,739.648,184.064,739.074"/>
			<path clip-path="url(#SVGID_54_)" fill="#3A8440" d="M156.112,723.184c0.652-0.816,19.136-0.106,19.803,0.697l0.52,0.78
				l-5.398,1.61c-3.399,1.014-7.212,1.047-10.625,0.094l-5.458-1.525L156.112,723.184z"/>
			<path clip-path="url(#SVGID_54_)" fill="#449945" d="M177.385,724.028l-6.347,1.895c-3.398,1.013-7.212,1.047-10.625,0.094
				l-6.302-1.76c-0.981-0.274-1.389-1.1-0.868-1.754l10.881-13.629c0.651-0.817,2.3-0.832,2.967-0.029l11.137,13.401
				C178.767,722.894,178.37,723.735,177.385,724.028"/>
			<path clip-path="url(#SVGID_54_)" fill="#388E44" d="M177.385,724.029l-6.347,1.894c-3.398,1.013-7.212,1.047-10.625,0.094
				l-6.302-1.761c-0.859-0.24,9.733,0.673,12.728,0.464c0.417-0.029,0.715-0.417,0.641-0.829l-2.797-14.628
				c-0.051-0.288,0.077-0.581,0.329-0.73c0.774-0.459,1.523-0.546,2.079,0.124l11.137,13.588
				C178.767,722.894,178.37,723.735,177.385,724.029"/>
			<path clip-path="url(#SVGID_54_)" fill="#388E44" d="M151.522,733.06l7.264,2.029c0.216,0.06,1.378,0.427,1.599,0.472l1.786,0.25
				c4.856,0.671,8.096-0.067,11.494-1.081l6.565-2.023c0.984-0.295,1.646-1.6,1.107-2.249l-10.281-12.385
				c-0.667-0.804-3.853-0.2-4.505,0.615l2.464,14.347c0.062,0.364-0.226,0.692-0.594,0.678L151.522,733.06z"/>
			<polygon clip-path="url(#SVGID_54_)" fill="#AF6A3A" points="167.903,745.633 167.903,750.271 165.065,750.271 165.065,747.07 
				165.065,745.599 			"/>
		</g>
		<g id="Water" clip-path="url(#SVGID_5_)">
			<defs>
				<path id="SVGID_71_" d="M295.165,1451.788c-65.093,92.996,17.975,145.348,17.975,145.348
					c138.871,112.348,166.261,17.625,166.261,17.625s-6.647-47.478,109.415-86.325c8.749-2.928,16.442-6.306,23.185-10.045v-146.622
					l-493.374-4.554C200.856,1370.112,342.154,1384.659,295.165,1451.788 M64.036,1366.711l54.59,0.504
					c-15.101-0.532-28.214-0.671-37.799-0.671C70.301,1366.544,64.036,1366.711,64.036,1366.711"/>
			</defs>
			<clipPath id="SVGID_72_">
				<use xlink:href="#SVGID_71_"  overflow="visible"/>
			</clipPath>
			
				<linearGradient id="SVGID_73_" gradientUnits="userSpaceOnUse" x1="0" y1="1805.9873" x2="1" y2="1805.9873" gradientTransform="matrix(2.9999 368.9816 368.9816 -2.9999 -666039.5625 6770.9282)">
				<stop  offset="0" style="stop-color:#1C75BC"/>
				<stop  offset="1" style="stop-color:#27AAE1"/>
			</linearGradient>
			<polygon clip-path="url(#SVGID_72_)" fill="url(#SVGID_73_)" points="611.964,1362.089 614.788,1709.461 64.072,1713.938 
				61.248,1366.566 			"/>
		</g>
		<g id="UpperBoards" clip-path="url(#SVGID_5_)">
			<defs>
				<rect id="SVGID_74_" y="0.002" width="612" height="1806.048"/>
			</defs>
			<clipPath id="SVGID_75_">
				<use xlink:href="#SVGID_74_"  overflow="visible"/>
			</clipPath>
			<polygon clip-path="url(#SVGID_75_)" fill="#E5E3A4" points="218.022,578.288 24.489,614.001 24.489,501.321 218.022,465.607 			
				"/>
			<g clip-path="url(#SVGID_75_)">
				<defs>
					<rect id="SVGID_76_" x="318.871" y="55.74" width="222.403" height="153.53"/>
				</defs>
				<clipPath id="SVGID_77_">
					<use xlink:href="#SVGID_76_"  overflow="visible"/>
				</clipPath>
				<polygon clip-path="url(#SVGID_77_)" fill="#E5E3A4" points="541.273,209.266 318.871,176.872 318.871,55.736 541.273,88.13 
									"/>
			</g>
			<g clip-path="url(#SVGID_75_)">
				<defs>
					<rect id="SVGID_78_" x="105.586" y="690.65" width="70.752" height="63.4"/>
				</defs>
				<clipPath id="SVGID_79_">
					<use xlink:href="#SVGID_78_"  overflow="visible"/>
				</clipPath>
				<rect x="105.587" y="690.649" clip-path="url(#SVGID_79_)" fill="#9EDAE6" width="70.751" height="63.403"/>
			</g>
			<g clip-path="url(#SVGID_75_)">
				<defs>
					<rect id="SVGID_80_" x="193.961" y="703.75" width="70.751" height="63.4"/>
				</defs>
				<clipPath id="SVGID_81_">
					<use xlink:href="#SVGID_80_"  overflow="visible"/>
				</clipPath>
				<rect x="193.961" y="703.748" clip-path="url(#SVGID_81_)" fill="#9EDAE6" width="70.751" height="63.403"/>
			</g>
			<g clip-path="url(#SVGID_75_)">
				<defs>
					<rect id="SVGID_82_" x="280.807" y="714.57" width="70.75" height="63.4"/>
				</defs>
				<clipPath id="SVGID_83_">
					<use xlink:href="#SVGID_82_"  overflow="visible"/>
				</clipPath>
				<rect x="280.807" y="714.569" clip-path="url(#SVGID_83_)" fill="#9EDAE6" width="70.75" height="63.403"/>
			</g>
		</g>
		<g clip-path="url(#SVGID_5_)">
			<text transform="matrix(1 0 0 1 246.7368 1488.4082)"><tspan x="0" y="0" font-family="'MyriadPro-Regular'" font-size="19" letter-spacing="-1">T</tspan><tspan x="8.113" y="0" font-family="'MyriadPro-Regular'" font-size="19">e</tspan><tspan x="17.594" y="0" font-family="'MyriadPro-Regular'" font-size="19">x</tspan><tspan x="26.638" y="0" font-family="'MyriadPro-Regular'" font-size="19">t</tspan></text>
		</g>
		<g clip-path="url(#SVGID_5_)">
			<defs>
				<rect id="SVGID_84_" y="0.002" width="612" height="1806.048"/>
			</defs>
			<clipPath id="SVGID_85_">
				<use xlink:href="#SVGID_84_"  overflow="visible"/>
			</clipPath>
			<g clip-path="url(#SVGID_85_)">
				<polygon fill="#E5E3A4" points="404.889,1612.517 152.193,1579.85 152.193,1427.85 404.889,1460.517 				"/>
				<rect x="152.194" y="1427.85" fill="none" width="252.695" height="184.667"/>
			</g>
		</g>
	</g>
</g>
	<path id="track" fill="#F27D4F" d="M570.027,1749.202c-34.966,4.898-68.437-17.316-101.531-27.662
		c-38.726-12.107-79.042-18.094-119.271-22.549c-75.752-8.391-159.207-8.533-227.37-46.992
		c-32.412-18.287-53.919-52.021-65.668-86.619c-13.01-38.311-13.885-79.215,5.063-115.533c7.519-14.412,17.285-30.725,31.413-39.518
		c10.712-6.668,24.127-8.936,36.463-10.328c32-3.611,64.605-1.178,96.659,0.4c27.788,1.369,58.097,4.971,85.553-1.189
		c11.692-2.623,21.699-8.777,27.692-19.342c6.891-12.145,9.048-26.709,13.002-39.932c5.016-16.77,12.113-32.951,18.296-49.316
		c7.257-19.209,14.354-38.479,21.279-57.809c13.161-36.74,25.928-73.688,36.905-111.146c3.175-10.834,6.245-16.912,16.598-22.01
		c9.017-4.441,18.923-6.934,28.434-10.064c15.926-5.238,36.019-12.869,37.659-32.264c0.617-7.301-0.649-17.637-6.059-23.076
		c-4.704-4.729-11.012-8.201-16.649-11.652c-20.881-12.783-42.722-24.059-64.468-35.277c-19.551-10.088-39.215-19.965-58.989-29.605
		c-6.48-3.158-12.814-6.061-19.682-8.344c-5.005-1.664-15.051-6.148-15.762-11.916c-0.586-4.752,5.096-10.939,7.479-14.547
		c5.931-8.98,12.064-19.895,5.571-30.311c-4.934-7.913-12.17-7.815-19.5-3.305c-10.658,6.558-18.788,16.566-29.923,22.488
		c-9.849,5.238-24.071,6.129-23.412-8.131c0.5-10.811,5.172-21.548,8.599-31.667c2.809-8.295,7.349-18.631,5.833-27.636
		c-3.76-22.332-38.185,1.518-46.06,7.463c-9.641,7.28-18.543,15.695-28.607,22.392c-3.532,2.35-6.211,4.498-10.132,1.968
		c-6.024-3.886-8.823-11.335-10.675-17.925c-2.629-9.356-1.95-21.16-6.517-29.791c-5.606-10.594-28.498-1.494-36.447,0.97
		c-9.419,2.921-19.14,6.197-29.113,4.443c-8-1.407-16.051-4.307-23.354-7.803c-13.544-6.485-25.631-15.979-34.9-27.819
		c-17.54-22.406-24.024-52.879-12.866-79.612c6.429-15.402,18.001-28.099,31.601-37.56c12.063-8.392,26.127-12.478,40.161-16.358
		c35.44-9.798,71.578-15.46,107.648-22.303c36.805-6.983,78.334-17.535,107.946-41.815c25.973-21.293,37.491-57.996,29.852-90.619
		c-3.543-15.13-10.889-28.714-26.187-33.962c-14.544-4.991-29.781-5.416-44.883-3.318c-29.801,4.142-47.041,35.427-49.45,63.185
		c-1.279,14.725,1.006,29.008,10.304,40.832c9.515,12.097,23.305,20.55,37.21,26.711c35.277,15.633,71.991,15.191,107.985,1.703
		c64.995-24.356,137.68-80.412,127.492-158.121c-5.3-40.427-29.793-75.713-55.685-105.961
		c-25.999-30.375-55.128-58.085-86.723-82.584c-60.984-47.287-131.905-82.99-207.718-98.762
		c-37.198-7.738-75.287-10.493-113.194-7.828c-3.192,0.224-3.217,5.227,0,5c158.692-11.155,312.648,75.24,410.971,195.923
		c25.892,31.781,49.872,70.561,48.273,113.083c-1.462,38.898-25.621,71.597-55.035,95.138
		c-32.101,25.691-74.618,47.701-116.243,49.71c-32.2,1.554-74.443-11.339-94.353-38.285c-20.449-27.676-4.429-76.615,24.948-91.713
		c12.264-6.302,31.061-5.278,44.129-2.627c8.295,1.683,17.494,3.81,23.086,10.648c5.7,6.971,8.952,16.003,10.725,24.734
		c3.775,18.615,0.815,38.884-7.214,56.015c-8.131,17.348-22.505,29.825-39.008,39.029c-37.074,20.68-79.911,27.583-121.139,34.805
		c-31.647,5.544-64.103,11.825-94.458,22.534c-25.471,8.985-47.683,28.716-57.045,54.422
		c-18.952,52.034,21.819,105.177,71.895,117.517c17.83,4.393,32.955-4.148,50.097-7.569c2.949-0.588,12.994-2.833,15.697-0.476
		c0.983,0.857,1.262,3.016,1.571,4.158c1.429,5.297,1.949,10.864,2.978,16.247c1.956,10.237,4.748,22.32,13.402,29.092
		c7.051,5.517,12.315,2.554,18.903-2.144c10.149-7.236,19.345-15.732,29.413-23.084c7.549-5.514,21.84-16.967,32.113-13.242
		c7.96,2.886,1.952,17.504,0.242,22.934c-3.285,10.43-7.513,20.642-9.824,31.358c-1.433,6.646-2.858,15.545,2.254,21.084
		c6.312,6.838,17.95,4.508,25.298,1.027c11.345-5.379,19.71-14.971,29.847-22.093c3.499-2.459,8.163-5.842,12.319-3.038
		c6.912,4.665,4.929,14.23,1.866,20.31c-3.796,7.535-14.333,16.826-12.94,26c1.527,10.051,15.441,14.264,23.53,17.148
		c15.241,5.436,29.817,14.111,44.231,21.348c22.476,11.281,44.869,22.754,66.931,34.83c9.302,5.092,18.571,10.271,27.598,15.844
		c4.871,3.006,12.207,6.475,15.639,11.301c5.099,7.17,5.012,20.445,0.469,27.76c-5.053,8.133-14.776,12.359-23.386,15.57
		c-15.794,5.889-38.082,8.475-49.477,22.217c-2.468,2.975-3.678,6.184-4.779,9.848c-2.55,8.479-4.991,16.988-7.625,25.443
		c-5.69,18.264-11.729,36.418-17.947,54.508c-12.64,36.777-25.994,73.312-39.902,109.629c-5.911,15.436-11.782,30.613-16.062,46.602
		c-3.305,12.352-6.118,26.932-16.222,35.76c-10.574,9.236-26.192,10.045-39.569,10.609c-14.476,0.611-28.991,0.107-43.458-0.504
		c-32.231-1.363-64.546-3.957-96.821-2.652c-23.375,0.945-50.118,2.977-67.589,20.393c-22.383,22.314-36.874,55.203-38.554,86.615
		c-1.999,37.379,9.313,75.41,28.976,107.045c8.557,13.768,18.958,26.785,31.522,37.109c11.935,9.807,26.102,16.836,40.26,22.83
		c33.248,14.074,69.041,20.824,104.671,25.531c79.083,10.447,160.482,11.141,236.285,38.686
		c18.808,6.834,36.43,17.473,56.287,21.025c10.326,1.846,21.21,2.617,31.649,1.156
		C574.529,1753.579,573.179,1748.763,570.027,1749.202"/>
		<svg id="donorsaur">
			<path fill="#B5B5B4" d="M93.217,145.423c0,0-19.978,4.948-32.061,2.229c0,0-10.802-1.272-5.363-4.51
			C62.731,139.012,91.364,144.428,93.217,145.423"/>
		<path fill="#97333E" d="M79.076,108.801c0,0,2.834,6.43-10.432,25.302c-3.48,4.95-5.013,11.196-5.013,11.196
			s14.325,3.391,22.428-0.33C94.163,141.249,79.076,108.801,79.076,108.801"/>
		<path fill="#4F7235" d="M89.085,116.223c0,0,3.426,13.506,7.767,11.602c4.342-1.903,1.684-5.525,1.558-5.831
			c-0.127-0.306-4.089-7.732-4.089-7.732"/>
		<path fill="#E88C4E" d="M70.663,112.371c0,0,3.106-1.784,1.8-5.126l-1.667,1.812L70.663,112.371z"/>
		<path fill="#E88C4E" d="M69.822,117.61c0,0,3.59-2.271,0.696-5.388l-1.637,2.069L69.822,117.61z"/>
		<path fill="#E88C4E" d="M70.505,128.39c0,0,3.701-3.268-0.768-5.378l-1.377,2.481L70.505,128.39z"/>
		<path fill="#E88C4E" d="M69.971,123.102c0,0,4.125-2.713-0.001-5.433l-1.714,2.263L69.971,123.102z"/>
		<path fill="#E88C4E" d="M79.117,106.136c0,0-4.831,3.003-0.158,6.257l2.04-2.555L79.117,106.136z"/>
		<path fill="#E88C4E" d="M80.882,100.146c0,0-5.473,1.552-1.881,5.97l2.667-1.892L80.882,100.146z"/>
		<path fill="#E88C4E" d="M86.041,96.75c0,0-5.263-2.158-5.165,3.535l3.266,0.158L86.041,96.75z"/>
		<path fill="#E88C4E" d="M92.25,96.668c0,0-3.124-4.754-6.259,0l2.606,1.975L92.25,96.668z"/>
		<path fill="#E88C4E" d="M78.332,125.143c0,0-5.589,1.06-2.403,5.78l2.825-1.649L78.332,125.143z"/>
		<path fill="#E88C4E" d="M75.216,130.79c0,0-0.271-4.93-4.697-2.73l1.094,2.619L75.216,130.79z"/>
		<path fill="#E88C4E" d="M78.856,118.825c0,0-5.132,2.453-0.846,6.202l2.309-2.315L78.856,118.825z"/>
		<path fill="#E88C4E" d="M79.117,112.52c0,0-4.831,3.003-0.158,6.257l2.04-2.555L79.117,112.52z"/>
		<path fill="#5E8B3D" d="M94.023,134.124c0,0,0.762,10.03-0.806,11.299c-1.569,1.269-5.932,1.13-6.309-0.245
			s-1.069-8.323-0.315-10.544C87.348,132.412,93.171,132.733,94.023,134.124"/>
		<path fill="#E4E2A4" d="M93.804,144.244c0,0-0.585-0.375-1.701,1.739c0,0-1.389-2.265-2.822,0.289c0,0-0.347-2.054-2.372-1.094
			c0,0-0.592,1.449,3.998,1.164C90.906,146.342,93.529,146.248,93.804,144.244"/>
		<path fill="#4F7235" d="M93.955,133.577l-7.699,4.325l0.012,0.607c0.006,0.08,2.335,1.179,7.839-2.894L93.955,133.577z"/>
		<path fill="#5E8B3D" d="M82.164,103.961c-0.635,1.749,1.058,2.642,1.058,2.642h16.924c0,0,0-6.902-6.241-9.507
			c-6.241-2.606-14.385,0.805-14.809,8.672c-0.422,7.868,1.148,21.889-3.551,24.187c-7.755,3.792-6.497-20.754-0.891-25.994
			c0,0-6.77,3.915-8.251,14.675c-1.481,10.76,2.139,18.273,7.299,19.434c12.693,2.856,23.059-2.645,23.271-11.001
			c0.211-8.356-5.996-20.56-6.1-20.466"/>
		<path fill="#231F20" d="M87.76,104.779c0,0.276,0.178,0.499,0.397,0.499c0.22,0,0.398-0.223,0.398-0.499
			c0-0.275-0.178-0.499-0.398-0.499C87.938,104.28,87.76,104.504,87.76,104.779"/>
		<path fill="#231F20" d="M97.889,104.779c0,0.275,0.178,0.499,0.397,0.499c0.22,0,0.398-0.224,0.398-0.499
			c0-0.274-0.178-0.499-0.398-0.499C98.067,104.281,97.889,104.505,97.889,104.779"/>
		<path fill="#E4E2A4" d="M98.438,106.603c0,0,0.635,2.831-0.846,2.937c-1.481,0.105-5.103,0-5.103,0s7.579,17.201,3.627,21.634
			c-3.951,4.434-11.112,3.223-11.217-2.595c-0.106-5.817,0.634-13.433,0.488-16.536c-0.104-2.211-0.559-5.44-0.559-5.44H98.438z"/>
		<path fill="#97333E" d="M92.337,109.54c0,0-6.855,1.221-13.234-0.7l-0.027,1.06c0,0,1.957,1.445,13.828,0.625"/>
		<path fill="#4F7235" d="M84.693,116.068c0,0,0.099,13.947-4.1,13.206c-4.199-0.742-2.716-4.923-2.676-5.252
			c0.04-0.328,1.789-8.525,1.789-8.525"/>
		<polygon fill="#B7B484" points="98.15,106.619 96.986,108.817 96.246,106.619 		"/>
		<path fill="#5E8B3D" d="M82.907,134.953c0,0,0.762,10.03-0.807,11.299c-1.567,1.27-5.931,1.131-6.308-0.245
			c-0.377-1.375-1.069-8.323-0.315-10.544C76.232,133.242,82.055,133.562,82.907,134.953"/>
		<path fill="#E4E2A4" d="M82.687,145.073c0,0-0.585-0.375-1.701,1.739c0,0-1.389-2.265-2.823,0.289c0,0-0.346-2.054-2.372-1.094
			c0,0-0.591,1.449,3.999,1.164C79.79,147.171,82.413,147.077,82.687,145.073"/>
		<path fill="#5E8B3D" d="M84.474,114.903c0,0,0.099,13.075-4.134,12.38c-4.234-0.695-2.74-4.615-2.699-4.923
			c0.04-0.308,1.804-7.992,1.804-7.992"/>
		<polygon fill="#FFFFFF" points="98.841,106.619 97.677,108.817 96.937,106.619 		"/>
		<polygon fill="#B7B484" points="89.097,106.619 87.933,108.817 87.193,106.619 		"/>
		<polygon fill="#FFFFFF" points="89.641,106.666 88.477,108.863 87.737,106.666 		"/>
		<path fill="#4F7235" d="M83.092,138.505c0,0-3.056,0.984-7.952,0.084v0.941c0,0,3.355,1.223,7.948,0L83.092,138.505z"/>
		<path fill="#E4E2A4" d="M82.478,126.144c0,0-1.751-0.745-2.138,1.14c0,0-0.615-1.915-1.862-0.714c0,0,0.135-1.84-1.097-1.955
			c0,0,0.433,1.935,1.696,2.302c1.263,0.367,1.243,0.932,2.765-0.051L82.478,126.144z"/>
		<path fill="#BFBC86" d="M99.32,124.461c0,0-0.673,0.087-0.479,1.857c0,0-1.459-0.486-1.586,0.993c-0.128,1.478,0,0.323,0,0.323
			S99.453,126.725,99.32,124.461"/>
		<path fill="#CD2027" d="M64.483,127.046h13.224c0,0,2.669,9.946,9.896,10.057c7.227,0.111,9.673-10.057,9.673-10.057h15.769
			c3.263-0.011,8.551,7.338,8.562,11.917c0.011,5.079-6.507,12.658-9.874,12.654c0,0-43.94,1.398-45.243,0
			C65.186,150.219,52.515,116.23,64.483,127.046"/>
		<path fill="#968974" d="M118.409,146.858c-2.15,2.862-4.793,4.959-6.77,5.101c0,0-44.174,1.399-45.484,0
			c-0.249-0.265-0.828-1.675-1.564-3.796c-0.264-0.76,1.978,0.618,6.788,1.502c4.685,0.86,11.852,1.216,18.172,1.319
			c8.672,0.141,17.187-0.645,22.695-1.964C116.402,148.025,118.83,146.298,118.409,146.858"/>
		<path fill="#423C3C" d="M75.964,152.531c0,2.033-1.303,3.681-2.911,3.681s-2.911-1.648-2.911-3.681
			c0-2.033,1.303-3.682,2.911-3.682S75.964,150.498,75.964,152.531"/>
		<path fill="#B49346" d="M75.108,152.588c0,1.435-0.92,2.599-2.055,2.599c-1.135,0-2.055-1.164-2.055-2.599
			c0-1.435,0.92-2.599,2.055-2.599C74.188,149.989,75.108,151.153,75.108,152.588"/>
		<path fill="#423C3C" d="M109.525,152.531c0,2.033-1.303,3.681-2.911,3.681s-2.911-1.648-2.911-3.681
			c0-2.033,1.303-3.682,2.911-3.682S109.525,150.498,109.525,152.531"/>
		<path fill="#B49346" d="M108.669,152.588c0,1.435-0.92,2.599-2.055,2.599c-1.134,0-2.055-1.164-2.055-2.599
			c0-1.435,0.921-2.599,2.055-2.599C107.749,149.989,108.669,151.153,108.669,152.588"/>
		<polygon fill="#BB7E2B" points="63.731,131.562 67.707,131.255 70.914,135.679 68.768,135.679 71.932,139.407 70.082,139.407 
			72.788,142.468 70.958,142.468 73.664,146.366 68.408,141.986 70.17,141.724 66.841,138.811 68.583,138.811 65.001,135.197 
			66.578,135.066 		"/>
		<polygon fill="#E19F25" points="64.719,131.809 68.61,131.581 71.664,135.962 69.566,135.924 72.591,139.624 70.783,139.59 
			73.371,142.631 71.584,142.597 74.157,146.455 69.1,142.08 70.827,141.854 67.626,138.949 69.329,138.979 65.894,135.385 
			67.437,135.285"/>
		</svg>
</svg>
