<?xml version="1.0" encoding="utf-8"?>
<!-- Generator: Adobe Illustrator 16.0.0, SVG Export Plug-In . SVG Version: 6.00 Build 0)  -->
<!DOCTYPE svg PUBLIC "-//W3C//DTD SVG 1.1//EN" "http://www.w3.org/Graphics/SVG/1.1/DTD/svg11.dtd">
<svg version="1.1" id="Layer_1" xmlns="http://www.w3.org/2000/svg" xmlns:xlink="http://www.w3.org/1999/xlink" x="0px" y="0px"
	 width="1000px" height="2936.832px" viewBox="0 0 1000 2936.832" enable-background="new 0 0 1000 2936.832" xml:space="preserve">
<g id="track_1_">
	<g>
		<path fill="#F17E4E" d="M101.553,260.464c79.928-2.86,159.576,4.539,236.562,26.826c73.943,21.406,144.913,55.947,210.72,95.546
			c64.483,38.802,122.495,86.724,175.095,140.43c52.698,53.806,99.463,113.852,112.706,189.923
			c6.255,35.926,0.512,72.093-8.803,106.962c-7.628,28.553-18.146,58.005-35.071,82.465c-23.202,33.532-61.451,58.123-96.478,77.499
			c-78.393,43.363-179.787,73.348-269.118,51.411c-41.311-10.145-76.418-35.18-96.279-73.145
			c-27.167-51.932-17.291-116.691,15.872-163.564c36.951-52.229,110.289-72.091,169.489-49.018
			c68.255,26.602,102.203,105.423,88.811,174.436c-19.761,101.826-132.538,114.201-216.296,125.961
			c-48.311,6.783-96.746,12.889-144.625,22.38c-42.099,8.346-84.996,19.132-122.917,39.815
			c-32.37,17.655-54.558,42.995-62.287,79.45c-10.386,48.986,7.169,101.019,41.441,136.652
			c31.407,32.654,89.297,56.691,132.789,35.284c8.685-4.275,16.282-9.209,26.28-9.542c20.175-0.67,35.865,14.073,39.972,32.984
			c3.877,17.854-5.55,41.575,14.63,51.505c16.584,8.161,34.763-0.833,47.946-11.184c8-6.282,15.372-13.271,23.08-19.896
			c9.64-8.286,19.671-14.18,28.374-0.876c6.09,9.31,4.687,22.992,4.534,33.575c-0.163,11.326-0.005,22.508,3.365,33.41
			c5.692,18.417,25.383,30.354,44.005,30.988c16.519,0.562,30.428-11.271,41.752-21.816c12.647-11.779,29.3-32.023,46.229-14.867
			c5.313,5.384,12.538,22.575,8.72,30.379c-4.585,9.374-13.077,16.158-17.463,25.867c-9.823,21.75,9.91,41.806,27.271,51.665
			c27.13,15.408,59.219,21.755,87.423,35.064c28.221,13.318,56.252,28.14,83.805,42.788c32.227,17.134,115.734,69.606,54.442,103.24
			c-20.266,11.12-42.199,16.989-63.714,24.938c-14.751,5.451-26.499,13.984-35.096,27.248
			c-14.859,22.926-18.918,52.23-24.296,78.431c-6.451,31.432-12.478,63.002-21.383,93.856c-6.912,23.95-16.088,53.576-37.683,68.454
			c-8.13,5.602-18.688,8-27.277,13.111c-8.715,5.188-16.342,12.047-23.066,19.588c-27.027,30.312-34.75,73.467-44.001,111.629
			c-8.504,35.086-19.508,80.596-61.826,86.089c-16.179,2.101-33.415,0.497-49.667-0.041c-21.035-0.696-42.046-2.079-63.048-3.421
			c-37.243-2.38-75.304-6.342-112.585-3.12c-48.219,4.167-95.57,22.501-129.278,58.003c-36.061,37.979-47.716,90.925-45.611,141.877
			c5.02,121.511,97.301,235.677,214.18,267.978c32.977,9.113,67.185,13.419,100.885,18.919
			c36.466,5.949,73.062,11.008,109.716,15.643c69.702,8.814,140.011,14.425,209.411,25.438
			c51.267,8.135,98.261,25.693,146.412,44.116c34.811,13.318,67.812,17.035,104.214,7.604c0.749-0.193,0.431-1.351-0.318-1.156
			c-21.135,5.475-42.466,7.644-64.092,4.05c-18.234-3.03-35.619-10.038-52.709-16.826c-52.964-21.038-105.774-35.785-162.459-43.078
			c-74.337-9.563-148.946-16.812-223.214-26.963c-38.879-5.314-77.673-11.466-116.356-18.058
			c-36.353-6.195-72.582-14.454-105.425-31.769c-112.437-59.272-190.318-202.923-148.646-328.228
			c17.507-52.644,60.704-89.529,112.58-106.328c29.589-9.583,60.294-11.541,91.171-10.718c40.278,1.073,80.45,4.688,120.688,6.638
			c19.108,0.927,38.232,1.354,57.361,1.076c7.705-0.111,15.737-1.373,22.815-4.524c13.898-6.188,23.194-17.502,30.018-30.808
			c17.94-34.976,20.769-76.521,33.496-113.444c7.283-21.128,17.821-41.187,33.981-56.87c8.073-7.835,17.68-13.812,27.857-18.49
			c9.162-4.211,16.834-6.862,24.072-14.219c15.863-16.121,23.287-40.77,29.562-61.832c9.158-30.744,14.967-62.463,21.383-93.856
			c5.687-27.826,10.232-58.202,26.787-82.039c11.446-16.482,30.148-22.528,48.349-28.418c28.705-9.288,88.517-26.619,65.088-67.151
			c-10.673-18.465-30.529-32-47.987-43.395c-22.705-14.819-47.646-25.35-71.51-38.068c-28.627-15.258-57.073-28.532-87.738-39.188
			c-27.995-9.727-81.439-30.26-60.593-69.629c4.332-8.181,11.797-14.291,15.863-22.604c1.895-3.873-1.655-13.874-2.707-17.45
			c-3.862-13.133-15.528-24.167-29.455-18.577c-13.805,5.541-24.027,20.085-35.306,29.274
			c-21.711,17.688-51.693,16.459-69.034-7.451c-14.245-19.642-5.042-46.622-9.606-68.746c-2.458-11.912-12.015-21.344-23.716-15.009
			c-17.83,9.653-29.708,27.59-48.198,36.816c-12.644,6.309-31.283,6.479-40.416-5.951c-6.969-9.486-3.228-26.494-4.017-37.533
			c-1.615-22.611-17.467-37.553-39.618-39.766c-7.068-0.706-13.78,1.696-20.002,4.769c-11.344,5.601-21.401,10.764-34.25,12.174
			c-61.929,6.797-119.014-41.057-140.31-95.819c-17.366-44.657-13.701-101.883,21.486-136.851
			c29.383-29.199,72.457-43.083,111.487-53.503c90.218-24.086,184.22-27.191,275.234-46.954
			c36.597-7.946,70.497-21.465,97.499-48.418c40.02-39.948,45.456-104.905,25.291-155.595
			c-19.685-49.482-64.273-86.71-117.43-92.729c-58.054-6.573-113.206,20.793-143.288,70.613
			c-25.281,41.868-31.885,97.685-12.007,142.881c15.516,35.279,42.985,61.232,78.604,75.688
			c79.835,32.399,177.698,7.969,253.246-24.791c38.831-16.838,76.203-38.681,107.984-66.79
			c37.274-32.968,55.02-77.44,66.686-125.068c7.388-30.162,10.649-60.753,6.452-91.619c-4.64-34.114-17.808-66.699-34.712-96.477
			c-34.709-61.14-89.821-111.847-142.274-157.634c-55.574-48.512-118.355-87.873-184.206-120.864
			c-67.062-33.599-137.502-59.763-211.506-72.891c-54.131-9.603-109.335-11.935-164.2-9.971
			C100.781,259.292,100.778,260.492,101.553,260.464L101.553,260.464z"/>
	</g>
</g>
</svg>
