<svg version="1.1" id="Layer_1" xmlns="http://www.w3.org/2000/svg" xmlns:xlink="http://www.w3.org/1999/xlink" x="0px" y="0px"
	 width="612px" height="1806.05px" viewBox="0 0 612 1806.05" enable-background="new 0 0 612 1806.05" xml:space="preserve">
	<svg id="dinoCar">
		<path fill="#B5B5B4" d="M93.217,145.423c0,0-19.978,4.948-32.061,2.229c0,0-10.802-1.272-5.363-4.51
			C62.731,139.012,91.364,144.428,93.217,145.423"/>
		<path fill="#97333E" d="M79.076,108.801c0,0,2.834,6.43-10.432,25.302c-3.48,4.95-5.013,11.196-5.013,11.196
			s14.325,3.391,22.428-0.33C94.163,141.249,79.076,108.801,79.076,108.801"/>
		<path fill="#4F7235" d="M89.085,116.223c0,0,3.426,13.506,7.767,11.602c4.342-1.903,1.684-5.525,1.558-5.831
			c-0.127-0.306-4.089-7.732-4.089-7.732"/>
		<path fill="#E88C4E" d="M70.663,112.371c0,0,3.106-1.784,1.8-5.126l-1.667,1.812L70.663,112.371z"/>
		<path fill="#E88C4E" d="M69.822,117.61c0,0,3.59-2.271,0.696-5.388l-1.637,2.069L69.822,117.61z"/>
		<path fill="#E88C4E" d="M70.505,128.39c0,0,3.701-3.268-0.768-5.378l-1.377,2.481L70.505,128.39z"/>
		<path fill="#E88C4E" d="M69.971,123.102c0,0,4.125-2.713-0.001-5.433l-1.714,2.263L69.971,123.102z"/>
		<path fill="#E88C4E" d="M79.117,106.136c0,0-4.831,3.003-0.158,6.257l2.04-2.555L79.117,106.136z"/>
		<path fill="#E88C4E" d="M80.882,100.146c0,0-5.473,1.552-1.881,5.97l2.667-1.892L80.882,100.146z"/>
		<path fill="#E88C4E" d="M86.041,96.75c0,0-5.263-2.158-5.165,3.535l3.266,0.158L86.041,96.75z"/>
		<path fill="#E88C4E" d="M92.25,96.668c0,0-3.124-4.754-6.259,0l2.606,1.975L92.25,96.668z"/>
		<path fill="#E88C4E" d="M78.332,125.143c0,0-5.589,1.06-2.403,5.78l2.825-1.649L78.332,125.143z"/>
		<path fill="#E88C4E" d="M75.216,130.79c0,0-0.271-4.93-4.697-2.73l1.094,2.619L75.216,130.79z"/>
		<path fill="#E88C4E" d="M78.856,118.825c0,0-5.132,2.453-0.846,6.202l2.309-2.315L78.856,118.825z"/>
		<path fill="#E88C4E" d="M79.117,112.52c0,0-4.831,3.003-0.158,6.257l2.04-2.555L79.117,112.52z"/>
		<path fill="#5E8B3D" d="M94.023,134.124c0,0,0.762,10.03-0.806,11.299c-1.569,1.269-5.932,1.13-6.309-0.245
			s-1.069-8.323-0.315-10.544C87.348,132.412,93.171,132.733,94.023,134.124"/>
		<path fill="#E4E2A4" d="M93.804,144.244c0,0-0.585-0.375-1.701,1.739c0,0-1.389-2.265-2.822,0.289c0,0-0.347-2.054-2.372-1.094
			c0,0-0.592,1.449,3.998,1.164C90.906,146.342,93.529,146.248,93.804,144.244"/>
		<path fill="#4F7235" d="M93.955,133.577l-7.699,4.325l0.012,0.607c0.006,0.08,2.335,1.179,7.839-2.894L93.955,133.577z"/>
		<path fill="#5E8B3D" d="M82.164,103.961c-0.635,1.749,1.058,2.642,1.058,2.642h16.924c0,0,0-6.902-6.241-9.507
			c-6.241-2.606-14.385,0.805-14.809,8.672c-0.422,7.868,1.148,21.889-3.551,24.187c-7.755,3.792-6.497-20.754-0.891-25.994
			c0,0-6.77,3.915-8.251,14.675c-1.481,10.76,2.139,18.273,7.299,19.434c12.693,2.856,23.059-2.645,23.271-11.001
			c0.211-8.356-5.996-20.56-6.1-20.466"/>
		<path fill="#231F20" d="M87.76,104.779c0,0.276,0.178,0.499,0.397,0.499c0.22,0,0.398-0.223,0.398-0.499
			c0-0.275-0.178-0.499-0.398-0.499C87.938,104.28,87.76,104.504,87.76,104.779"/>
		<path fill="#231F20" d="M97.889,104.779c0,0.275,0.178,0.499,0.397,0.499c0.22,0,0.398-0.224,0.398-0.499
			c0-0.274-0.178-0.499-0.398-0.499C98.067,104.281,97.889,104.505,97.889,104.779"/>
		<path fill="#E4E2A4" d="M98.438,106.603c0,0,0.635,2.831-0.846,2.937c-1.481,0.105-5.103,0-5.103,0s7.579,17.201,3.627,21.634
			c-3.951,4.434-11.112,3.223-11.217-2.595c-0.106-5.817,0.634-13.433,0.488-16.536c-0.104-2.211-0.559-5.44-0.559-5.44H98.438z"/>
		<path fill="#97333E" d="M92.337,109.54c0,0-6.855,1.221-13.234-0.7l-0.027,1.06c0,0,1.957,1.445,13.828,0.625"/>
		<path fill="#4F7235" d="M84.693,116.068c0,0,0.099,13.947-4.1,13.206c-4.199-0.742-2.716-4.923-2.676-5.252
			c0.04-0.328,1.789-8.525,1.789-8.525"/>
		<polygon fill="#B7B484" points="98.15,106.619 96.986,108.817 96.246,106.619 		"/>
		<path fill="#5E8B3D" d="M82.907,134.953c0,0,0.762,10.03-0.807,11.299c-1.567,1.27-5.931,1.131-6.308-0.245
			c-0.377-1.375-1.069-8.323-0.315-10.544C76.232,133.242,82.055,133.562,82.907,134.953"/>
		<path fill="#E4E2A4" d="M82.687,145.073c0,0-0.585-0.375-1.701,1.739c0,0-1.389-2.265-2.823,0.289c0,0-0.346-2.054-2.372-1.094
			c0,0-0.591,1.449,3.999,1.164C79.79,147.171,82.413,147.077,82.687,145.073"/>
		<path fill="#5E8B3D" d="M84.474,114.903c0,0,0.099,13.075-4.134,12.38c-4.234-0.695-2.74-4.615-2.699-4.923
			c0.04-0.308,1.804-7.992,1.804-7.992"/>
		<polygon fill="#FFFFFF" points="98.841,106.619 97.677,108.817 96.937,106.619 		"/>
		<polygon fill="#B7B484" points="89.097,106.619 87.933,108.817 87.193,106.619 		"/>
		<polygon fill="#FFFFFF" points="89.641,106.666 88.477,108.863 87.737,106.666 		"/>
		<path fill="#4F7235" d="M83.092,138.505c0,0-3.056,0.984-7.952,0.084v0.941c0,0,3.355,1.223,7.948,0L83.092,138.505z"/>
		<path fill="#E4E2A4" d="M82.478,126.144c0,0-1.751-0.745-2.138,1.14c0,0-0.615-1.915-1.862-0.714c0,0,0.135-1.84-1.097-1.955
			c0,0,0.433,1.935,1.696,2.302c1.263,0.367,1.243,0.932,2.765-0.051L82.478,126.144z"/>
		<path fill="#BFBC86" d="M99.32,124.461c0,0-0.673,0.087-0.479,1.857c0,0-1.459-0.486-1.586,0.993c-0.128,1.478,0,0.323,0,0.323
			S99.453,126.725,99.32,124.461"/>
		<path fill="#CD2027" d="M64.483,127.046h13.224c0,0,2.669,9.946,9.896,10.057c7.227,0.111,9.673-10.057,9.673-10.057h15.769
			c3.263-0.011,8.551,7.338,8.562,11.917c0.011,5.079-6.507,12.658-9.874,12.654c0,0-43.94,1.398-45.243,0
			C65.186,150.219,52.515,116.23,64.483,127.046"/>
		<path fill="#968974" d="M118.409,146.858c-2.15,2.862-4.793,4.959-6.77,5.101c0,0-44.174,1.399-45.484,0
			c-0.249-0.265-0.828-1.675-1.564-3.796c-0.264-0.76,1.978,0.618,6.788,1.502c4.685,0.86,11.852,1.216,18.172,1.319
			c8.672,0.141,17.187-0.645,22.695-1.964C116.402,148.025,118.83,146.298,118.409,146.858"/>
		<path fill="#423C3C" d="M75.964,152.531c0,2.033-1.303,3.681-2.911,3.681s-2.911-1.648-2.911-3.681
			c0-2.033,1.303-3.682,2.911-3.682S75.964,150.498,75.964,152.531"/>
		<path fill="#B49346" d="M75.108,152.588c0,1.435-0.92,2.599-2.055,2.599c-1.135,0-2.055-1.164-2.055-2.599
			c0-1.435,0.92-2.599,2.055-2.599C74.188,149.989,75.108,151.153,75.108,152.588"/>
		<path fill="#423C3C" d="M109.525,152.531c0,2.033-1.303,3.681-2.911,3.681s-2.911-1.648-2.911-3.681
			c0-2.033,1.303-3.682,2.911-3.682S109.525,150.498,109.525,152.531"/>
		<path fill="#B49346" d="M108.669,152.588c0,1.435-0.92,2.599-2.055,2.599c-1.134,0-2.055-1.164-2.055-2.599
			c0-1.435,0.921-2.599,2.055-2.599C107.749,149.989,108.669,151.153,108.669,152.588"/>
		<polygon fill="#BB7E2B" points="63.731,131.562 67.707,131.255 70.914,135.679 68.768,135.679 71.932,139.407 70.082,139.407 
			72.788,142.468 70.958,142.468 73.664,146.366 68.408,141.986 70.17,141.724 66.841,138.811 68.583,138.811 65.001,135.197 
			66.578,135.066 		"/>
		<polygon fill="#E19F25" points="64.719,131.809 68.61,131.581 71.664,135.962 69.566,135.924 72.591,139.624 70.783,139.59 
			73.371,142.631 71.584,142.597 74.157,146.455 69.1,142.08 70.827,141.854 67.626,138.949 69.329,138.979 65.894,135.385 
			67.437,135.285 		"/>
</svg>

		<path id="trackPath" fill="none" stroke="#F27D4F" stroke-width="7" stroke-miterlimit="10" d="M61.571,158.265
			c158.692-11.155,312.647,75.24,410.971,195.923c25.892,31.781,49.872,70.561,48.273,113.083
			c-1.462,38.897-25.621,71.597-55.035,95.138c-32.102,25.69-74.618,47.701-116.243,49.71c-32.2,1.554-74.443-11.339-94.353-38.285
			c-20.449-27.676-4.429-76.615,24.948-91.713c12.264-6.302,31.062-5.278,44.129-2.627c8.295,1.683,17.494,3.81,23.086,10.647
			c5.7,6.972,8.952,16.004,10.726,24.734c3.774,18.615,0.814,38.884-7.214,56.016c-8.132,17.348-22.505,29.824-39.009,39.028
			c-37.074,20.681-79.911,27.583-121.139,34.806c-31.647,5.544-64.103,11.824-94.458,22.533
			c-25.471,8.985-47.683,28.717-57.045,54.422c-18.952,52.034,21.819,105.178,71.895,117.518c17.83,4.393,32.955-4.148,50.097-7.569
			c2.949-0.588,12.994-2.833,15.697-0.476c0.983,0.856,1.262,3.016,1.571,4.158c1.429,5.297,1.949,10.863,2.978,16.247
			c1.956,10.236,4.748,22.319,13.402,29.092c7.051,5.517,12.315,2.554,18.903-2.145c10.149-7.235,19.345-15.731,29.413-23.084
			c7.549-5.514,21.84-16.967,32.113-13.241c7.96,2.886,1.952,17.504,0.242,22.934c-3.285,10.43-7.513,20.642-9.824,31.357
			c-1.433,6.646-2.858,15.547,2.254,21.084c6.312,6.838,17.95,4.51,25.298,1.027c11.345-5.379,19.71-14.971,29.847-22.092
			c3.499-2.459,8.163-5.842,12.319-3.038c6.912,4.665,4.929,14.23,1.866,20.31c-3.796,7.535-14.333,16.826-12.94,26
			c1.527,10.051,15.441,14.266,23.53,17.148c15.241,5.436,29.816,14.111,44.23,21.348c22.477,11.281,44.869,22.754,66.932,34.83
			c9.302,5.092,18.57,10.271,27.598,15.844c4.871,3.006,12.207,6.477,15.639,11.303c5.1,7.17,5.013,20.443,0.47,27.76
			c-5.054,8.133-14.776,12.359-23.387,15.568c-15.794,5.891-38.081,8.477-49.477,22.217c-2.468,2.975-3.678,6.186-4.779,9.85
			c-2.55,8.479-4.99,16.986-7.625,25.443c-5.689,18.262-11.729,36.416-17.946,54.506c-12.641,36.779-25.994,73.312-39.902,109.629
			c-5.911,15.438-11.782,30.613-16.062,46.604c-3.305,12.352-6.117,26.932-16.222,35.76c-10.574,9.236-26.192,10.045-39.569,10.609
			c-14.476,0.611-28.991,0.107-43.458-0.506c-32.231-1.361-64.546-3.955-96.821-2.65c-23.375,0.945-50.118,2.977-67.589,20.393
			c-22.383,22.314-36.874,55.203-38.554,86.615c-1.999,37.379,9.313,75.41,28.976,107.045c8.557,13.768,18.958,26.785,31.522,37.109
			c11.935,9.807,26.102,16.836,40.26,22.83c33.248,14.074,69.041,20.822,104.671,25.529
			c79.083,10.447,160.482,11.143,236.285,38.688c18.809,6.834,36.431,17.473,56.287,21.023c10.326,1.848,21.21,2.619,31.649,1.156"
			/>
</svg>
