<?xml version="1.0" encoding="utf-8"?>
<!-- Generator: Adobe Illustrator 16.0.0, SVG Export Plug-In . SVG Version: 6.00 Build 0)  -->
<!DOCTYPE svg PUBLIC "-//W3C//DTD SVG 1.1//EN" "http://www.w3.org/Graphics/SVG/1.1/DTD/svg11.dtd">
<svg version="1.1" id="Layer_1" xmlns="http://www.w3.org/2000/svg" xmlns:xlink="http://www.w3.org/1999/xlink" viewBox="0 0 1100 2575" xml:space="preserve">
	<path id="track" fill="none" stroke="#transparent" stroke-width="2" stroke-miterlimit="10" d="M187.4,557.5
		c63.8-2.7,116.5,3.8,171.1,18.2c66.8,18,134.1,51.8,171.3,75.7c37.2,23.9,54.9,35.3,80,58c25.1,22.7,40.4,38.3,50.3,48.4
		c9.9,10.1,52.5,55,66.3,89.1c9.1,23.7,16.4,42,14.7,86.2c-5.2,45.9-15.5,65-32,91.6c-16.5,26.6-40.7,47.3-82.9,69.4
		c-42.4,23.4-89,33.6-118.2,35.1c-29.2,1.5-72.4,6.3-118.4-31.2c-23.3-19-44.8-60.9-27.5-110.9c7.5-21.6,17.4-37.9,37.9-53.2
		c13.7-10.3,56.5-37.2,112.4-10.7c31.7,17.5,49.8,44.6,56.1,71c5.2,21.9,5.1,58.2-20.5,90c-20.9,27.7-50.4,33.8-68.6,39.6
		c-18.1,5.8-71.9,11-107.4,15.5c-35.6,4.5-55.6,7.1-83.5,12.5c-25.5,4.9-64.8,17.8-82,29.3c-18.2,12.1-28.4,21.5-38,48.1
		c-10.3,28.7-9.1,74.1,25.7,114.2c31,36.2,83.2,34.8,94.4,31.5c14.6-4.2,20.7-11,34.8-9.9c6.7,0.5,19.2,5.8,20.5,27.1
		c0.4,7.4-3.4,28.7,12.1,34.7c10,3.9,21.1,0.9,41.7-15.3c11.7-10.1,18.9-15.9,25-12.9c7.5,3.7,8.8,8.2,8.2,29.4
		c2.1,19,2.6,33.5,22.5,42.4c13.4,6.5,26.7,1.4,39.1-10.1c13.2-12.3,22-20.5,29-19.5c7.8,1.1,17.7,11.4,15.1,24.4
		c-2.3,11.8-11.8,15.5-14.5,25.7c-3,11,8.8,28.6,20.9,35.4c21.5,12,63.2,24.1,75.6,29.3c7.1,3-6.6,11.8-22.5,45.3
		c-19.8,41.8,33.5,23.9,27.6,58c-1.7,11.6-4.3,33.4-5.1,45.5c-0.8,12.1-1.5,58.6-3.2,77c-1.7,18.4-2.9,41.9-7.2,55.5
		c-4.2,13.6-4.5,24.3-18.8,33.6c-14.3,9.3-34.1,14.4-38.9,19.8c-4.9,5.4-16.6,14.2-23.4,30.4c-6.8,16.2-11.6,26.8-16,45.2
		c-4.4,18.4-13.6,56.9-25.2,68.5c-11.6,11.6-31.1,16.7-47.7,15.7c-16.6-1-54.2-4.8-71.9-6.8c-17.7-2-57.3-4.8-76.3-2
		c-19.1,2.7-28.6,4.7-40.2,9c-11.6,4.3-35.1,16-45,25.1c-9.9,9.1-19.4,21.4-23.5,29.6c-4.1,8.2-11.1,25-13.1,33.8
		c-2,8.9-3.8,32.5-3.8,43.8c0,11.2,0.6,23.9,3.3,34.8c2.7,10.9,6.1,24.5,13,41.2c6.8,16.7,24.8,52.7,39.5,67.5
		c20.9,21.1,56.9,48.3,83.5,56.1c26.6,7.8,37.4,10.9,47.7,13.3c16.4,3.4,70.2,13.6,105.6,17.7c35.4,4.1,64.4,6.8,76.3,7.8
		c11.9,1,72.5,6.5,87.5,9.5c23.1,2.7,66.8,16.4,96.8,27.3c30,10.9,41.2,17.1,64.6,18.9c19.2,1.5,25.7-0.5,25.7-0.5"/>
	<g id="dinoGroup">
		<g id="dinoCar_1_" transform="matrix(1 0 0 1 -170 -417)">
			<rect id="dinoWheelR" x="236.27" y="493.16" fill="#B69152" width="3.43" height="4.86"/>
			<rect id="dinoWheelL" x="196.46" y="493.16" fill="#B69152" width="3.5" height="4.86"/>
			<g id="dinoGuy">
				<path fill="#4C723D" d="M223.64,451.87c0,0,4.6,18.09,10.44,15.54c5.83-2.55,2.26-7.4,2.09-7.81
					c-0.17-0.41-5.49-10.36-5.49-10.36"/>
				<path fill="#EA8A58" d="M198.89,446.71c0,0,4.17-2.39,2.42-6.87l-2.24,2.43L198.89,446.71z"/>
				<path fill="#EA8A58" d="M197.75,453.73c0,0,4.82-3.04,0.94-7.22l-2.2,2.77L197.75,453.73z"/>
				<path fill="#EA8A58" d="M210.24,438.36c0,0-6.49,4.02-0.21,8.38l2.74-3.42L210.24,438.36z"/>
				<path fill="#EA8A58" d="M212.62,430.33c0,0-7.35,2.08-2.53,8l3.58-2.54L212.62,430.33z"/>
				<path fill="#EA8A58" d="M219.55,425.78c0,0-7.07-2.89-6.94,4.74l4.39,0.21L219.55,425.78z"/>
				<path fill="#EA8A58" d="M227.89,425.67c0,0-4.2-6.37-8.41,0l3.5,2.65L227.89,425.67z"/>
				<path fill="#EA8A58" d="M210.24,446.91c0,0-6.49,4.02-0.21,8.38l2.74-3.42L210.24,446.91z"/>
				<path fill="#99323F" d="M210.19,441.93c0,0,3.81,8.61-14.02,33.9c-4.68,6.63-6.74,15-6.74,15s19.25,4.54,30.14-0.44
					C230.46,485.4,210.19,441.93,210.19,441.93"/>
				<path fill="#5A8948" d="M217.92,438.98l20.58,0c0,0,0-9.25-8.38-12.74c-8.39-3.49-19.33,1.08-19.9,11.62
					c-0.57,10.54,1.54,29.32-4.77,32.4c-10.42,5.08-8.73-27.8-1.2-34.82c0,0-9.1,5.24-11.09,19.66
					c-1.99,14.42,2.87,24.48,9.81,26.04c17.05,3.83,30.98-3.54,31.27-14.74c0.28-11.2-8.06-27.54-8.2-27.42"/>
				<path fill="#695457" d="M197.71,454.34c0.16-0.8,1.55-1.35,3.37-1.64c1.84-0.29,3.76-0.34,4.2,0.72
					c0.88,2.11,0.36,16.32,0.36,16.32h-7.97C197.67,469.74,197.38,455.94,197.71,454.34z"/>
				<path fill="#785C5E" d="M199.91,454.52c0.12-0.8,0.87-1.36,2.46-1.66c1.39-0.26,2.74-0.35,3.06,0.73
					c0.64,2.13,0.55,15.43,0.55,15.43l-6.17-2.19C199.81,466.83,199.67,456.14,199.91,454.52z"/>
				<path fill="#EA8A58" d="M209.19,463.82c0,0-7.51,1.42-3.23,7.74l3.79-2.21L209.19,463.82z"/>
				<path fill="#EA8A58" d="M209.89,455.36c0,0-6.9,3.29-1.14,8.31l3.1-3.1L209.89,455.36z"/>
				<path fill="#241F20" d="M221.86,436.54c0,0.37,0.24,0.67,0.53,0.67s0.53-0.3,0.53-0.67s-0.24-0.67-0.53-0.67
					S221.86,436.17,221.86,436.54"/>
				<path fill="#241F20" d="M235.47,436.54c0,0.37,0.24,0.67,0.53,0.67c0.29,0,0.53-0.3,0.53-0.67c0-0.37-0.24-0.67-0.53-0.67
					C235.71,435.87,235.47,436.17,235.47,436.54"/>
				<path fill="#E4E1AA" d="M236.2,438.98c0,0,0.85,3.79-1.14,3.93c-1.99,0.14-6.86,0-6.86,0s10.18,23.04,4.87,28.98
					c-5.31,5.94-14.93,4.32-15.07-3.48c-0.14-7.79,0.85-18,0.66-22.15c-0.14-2.96-0.75-7.29-0.75-7.29H236.2z"/>
				<path fill="#99323F" d="M228.01,442.92c0,0-9.21,1.64-17.78-0.94l-0.04,1.42c0,0,2.63,1.94,18.58,0.84"/>
				<path fill="#4C723D" d="M217.74,450.66c0,0,0.13,18.68-5.51,17.69c-5.64-0.99-3.65-6.6-3.6-7.04c0.05-0.44,2.4-11.42,2.4-11.42"
					/>
				<polygon fill="#B7B389" points="236.25,439 234.69,441.95 233.7,439 				"/>
				<path fill="#5A8948" d="M217.44,450.1c0,0,0.13,17.52-5.56,16.59c-5.69-0.93-3.68-6.18-3.62-6.6
					c0.05-0.41,2.42-10.71,2.42-10.71"/>
				<polygon fill="#FFFFFF" points="236.75,439 235.18,441.95 234.19,439 				"/>
				<polygon fill="#B7B389" points="223.84,439 222.28,441.95 221.28,439 				"/>
				<polygon fill="#FFFFFF" points="224.38,439.07 222.82,442.01 221.83,439.07 				"/>
				<path fill="#E4E1AA" d="M214.76,465.16c0,0-2.35-1-2.87,1.53c0,0-0.83-2.56-2.5-0.96c0,0,0.18-2.46-1.47-2.62
					c0,0-0.24,1.87,2.28,3.08c1.59,0.76,1.85,1.44,3.72-0.07C214.39,465.74,214.76,465.16,214.76,465.16z"/>
				<path fill="#BFBB8B" d="M237.39,462.91c0,0-0.9,0.12-0.64,2.49c0,0-1.96-0.65-2.13,1.33c-0.17,1.98,0,0.43,0,0.43
					S237.57,465.94,237.39,462.91"/>
			</g>
			<path fill="#D21C2C" d="M188.05,464.77h15.68c0,0,3.16,11.76,11.73,11.89c8.57,0.13,11.47-11.89,11.47-11.89h18.69
				c3.87-0.01,10.14,8.67,10.15,14.08c0.01,6-7.71,14.96-11.71,14.96c0,0-52.09,1.65-53.63,0
				C188.88,492.16,173.86,451.98,188.05,464.77z"/>
			<path fill="#958877" d="M251.97,488.18c-2.55,3.38-5.68,5.86-8.02,6.03c0,0-52.36,1.65-53.92,0c-0.29-0.31-0.98-1.98-1.85-4.49
				c-0.31-0.9,2.34,0.73,8.05,1.78c5.55,1.02,14.05,1.44,21.54,1.56c10.28,0.17,20.37-0.76,26.9-2.32
				C249.59,489.56,252.47,487.52,251.97,488.18z"/>
			<ellipse fill="#433C3C" cx="237.99" cy="495.16" rx="4.06" ry="4.61"/>
			<ellipse fill="#433C3C" cx="198.21" cy="494.89" rx="4.06" ry="4.61"/>
			<ellipse fill="#B69152" cx="198.21" cy="494.96" rx="2.44" ry="3.07"/>
			<ellipse fill="#B69152" cx="237.99" cy="495.16" rx="2.44" ry="3.07"/>
			<polygon fill="#BD7C3B" points="195.72,483 198.93,487.6 192.7,482.43 194.79,482.12 190.84,478.67 192.91,478.67 188.66,474.4 
				190.53,474.25 187.16,470.1 191.87,469.74 192.31,470.35 			"/>
			<polygon fill="#E59D41" points="188.33,470.4 192.94,470.13 196.56,475.31 194.07,475.26 197.66,479.63 195.52,479.59 
				198.58,483.19 196.47,483.15 199.52,487.71 193.52,482.54 195.57,482.27 191.77,478.83 193.79,478.87 189.72,474.62 
				191.55,474.5"/>
		</g>
</g>
</svg>
